<?xml version="1.0" encoding="utf-8"?>
<!-- Generator: Adobe Illustrator 25.2.1, SVG Export Plug-In . SVG Version: 6.00 Build 0)  -->
<svg version="1.1" id="Layer_1" xmlns="http://www.w3.org/2000/svg" xmlns:xlink="http://www.w3.org/1999/xlink" x="0px" y="0px"
	 viewBox="0 0 512 512" style="enable-background:new 0 0 512 512;" xml:space="preserve">
<style type="text/css">
	.st0{fill:#57A4FF;}
	.st1{opacity:0.5;fill:#57A4FF;}
</style>
<path class="st0" d="M462.5,192.3c1.9-1,3.1-3,3.1-5.2v-49.5c0-0.3-0.1-0.6-0.1-1c0-0.2,0-0.4-0.1-0.6c-0.1-0.5-0.3-1-0.6-1.4
	c-0.1-0.1-0.2-0.3-0.3-0.4c-0.2-0.3-0.4-0.6-0.6-0.8c-0.1-0.1-0.3-0.2-0.5-0.4c-0.2-0.2-0.5-0.4-0.7-0.6l0,0l0,0l-49.5-28.4
	c-1.8-1-4.1-1-5.9,0l-49.5,28.4l0,0l0,0c-0.3,0.2-0.5,0.4-0.7,0.6c-0.2,0.1-0.3,0.2-0.5,0.4c-0.2,0.2-0.4,0.5-0.6,0.8
	c-0.1,0.1-0.2,0.3-0.3,0.4c-0.2,0.5-0.4,0.9-0.6,1.4c-0.1,0.2-0.1,0.4-0.1,0.5c-0.1,0.3-0.1,0.7-0.1,1v12.1l-44-27.6
	c0.1-0.3,0.1-0.6,0.1-0.9V71.7c0-0.3-0.1-0.6-0.1-1c0-0.2,0-0.4-0.1-0.6c-0.1-0.5-0.3-1-0.6-1.4c-0.1-0.2-0.2-0.3-0.4-0.5
	c-0.2-0.3-0.3-0.5-0.5-0.7c-0.2-0.2-0.4-0.3-0.6-0.4c-0.2-0.2-0.4-0.4-0.6-0.5h0l0-0.1l-49.5-28.3c-1.8-1-4.1-1-5.9,0l-49.5,28.3
	l0,0h0c-0.2,0.1-0.4,0.3-0.6,0.5c-0.2,0.1-0.4,0.3-0.6,0.4c-0.2,0.2-0.4,0.5-0.5,0.7c-0.1,0.2-0.3,0.3-0.4,0.5
	c-0.3,0.5-0.5,0.9-0.6,1.4c0,0.2,0,0.4-0.1,0.5c-0.1,0.3-0.1,0.7-0.1,1v49.5c0,0.3,0.1,0.6,0.1,0.9l-44,27.6v-12.1
	c0-0.3-0.1-0.6-0.1-1c0-0.2,0-0.4-0.1-0.6c-0.1-0.5-0.3-1-0.6-1.4c-0.1-0.1-0.2-0.3-0.3-0.4c-0.2-0.3-0.4-0.6-0.6-0.8
	c-0.1-0.1-0.3-0.2-0.5-0.4c-0.2-0.2-0.5-0.4-0.7-0.6l0,0l0,0l-49.5-28.4c-1.8-1-4.1-1-5.9,0l-49.5,28.4l0,0l-0.1,0
	c-0.2,0.2-0.5,0.4-0.7,0.6c-0.2,0.1-0.3,0.2-0.5,0.4c-0.2,0.2-0.4,0.5-0.6,0.8c-0.1,0.1-0.2,0.3-0.3,0.4c-0.2,0.5-0.5,0.9-0.6,1.4
	c0,0.2,0,0.4-0.1,0.5c-0.1,0.3-0.1,0.7-0.1,1v49.5c0,2.2,1.2,4.2,3.1,5.2l46.4,25.3v67.8l-46.5,26.7l0,0l-0.1,0
	c-0.2,0.2-0.5,0.4-0.7,0.6c-0.2,0.1-0.3,0.2-0.5,0.4c-0.2,0.2-0.4,0.5-0.6,0.8c-0.1,0.1-0.2,0.3-0.3,0.4c-0.2,0.5-0.5,0.9-0.6,1.4
	c0,0.2,0,0.4-0.1,0.5c-0.1,0.3-0.1,0.6-0.1,1v49.5c0,2.2,1.2,4.2,3.1,5.2l49.5,27c0.3,0.1,0.6,0.2,0.9,0.3c0.2,0.1,0.3,0.1,0.5,0.2
	c1,0.3,2,0.3,3,0c0.2,0,0.3-0.1,0.5-0.2c0.3-0.1,0.6-0.2,0.9-0.3l42-22.9l54.5,36.3v24.5c0,2.2,1.2,4.2,3.1,5.2l49.5,27
	c0.3,0.1,0.6,0.2,0.9,0.3c0.2,0,0.3,0.1,0.5,0.2c1,0.3,2,0.3,3,0c0.2,0,0.3-0.1,0.5-0.2c0.3-0.1,0.6-0.2,0.9-0.3l49.5-27
	c1.9-1,3.1-3,3.1-5.2v-24.5l54.5-36.3l42,23c0.3,0.1,0.6,0.2,0.9,0.3c0.2,0.1,0.3,0.1,0.5,0.2c1,0.3,2,0.3,3,0
	c0.2,0,0.3-0.1,0.5-0.2c0.3-0.1,0.6-0.2,0.9-0.3l49.5-27c1.9-1,3.1-3,3.1-5.2v-49.5c0-0.3-0.1-0.7-0.1-1c0-0.2,0-0.4-0.1-0.5
	c-0.1-0.5-0.3-1-0.6-1.4c-0.1-0.2-0.2-0.3-0.3-0.4c-0.2-0.3-0.4-0.6-0.6-0.8c-0.1-0.1-0.3-0.2-0.5-0.4c-0.2-0.2-0.5-0.4-0.7-0.6l0,0
	l0,0L416,285.5v-67.8L462.5,192.3z M453.7,183.6L416,204.2v-36l37.7-20.5V183.6z M366.5,147.6l37.7,20.5v36l-37.7-20.6V147.6z
	 M354.7,163.7v23.5c0,0.5,0.1,1,0.2,1.5l-50.2,32.7l-43.4-24.9v-44.8L301,130L354.7,163.7z M219.5,229l-1.5-0.8l37.4-21.4l37.4,21.4
	l-1.5,0.8l-35.9,19.6L219.5,229z M249.4,258.8v36l-37.7-20.6v-36L249.4,258.8z M261.3,258.8l37.7-20.6v36l-37.7,20.6V258.8z
	 M298.9,117.7l-37.7,20.6v-36l37.7-20.6V117.7z M255.3,50.2l37.4,21.4L257,91.1l-1.6,0.9l-1.6-0.9L218,71.6L255.3,50.2z M211.8,81.7
	l37.7,20.6v36l-37.7-20.6V81.7z M156,187.1v-23.5l53.7-33.6l39.7,21.7v44.8L206,221.3l-50.2-32.7C155.9,188.1,156,187.6,156,187.1z
	 M100.6,116.1l37.4,21.4l-1.5,0.8l-35.9,19.6l-35.9-19.6l-1.5-0.8L100.6,116.1z M144.2,147.6v36l-37.7,20.6v-36L144.2,147.6z
	 M57,183.6v-36l37.7,20.6v36L57,183.6z M94.7,383.8L57,363.3v-36l37.7,20.6V383.8z M100.6,337.5L64.7,318l-1.5-0.8l37.4-21.4
	l37.4,21.4l-1.5,0.8L100.6,337.5z M144.2,363.3l-37.7,20.5v-36l37.7-20.6V363.3z M106.5,285.5v-67.8l39.2-21.4l54.2,35.2v43.2
	l-50.3,35.4L106.5,285.5z M202.9,382.2L202.9,382.2L202.9,382.2c-0.3,0.2-0.6,0.4-0.8,0.6c-0.2,0.1-0.3,0.2-0.5,0.4
	c-0.2,0.2-0.4,0.5-0.6,0.8c-0.1,0.1-0.2,0.3-0.3,0.4c-0.2,0.5-0.4,0.9-0.6,1.4c0,0.2,0,0.4-0.1,0.5c-0.1,0.3-0.1,0.6-0.1,1v10.7
	l-44.2-29.5c0.2-0.6,0.3-1.2,0.3-1.8v-46.6l50.2-35.4l43.2,23.6v47.3L202.9,382.2z M249.4,453.9l-37.7-20.5v-36l37.7,20.5V453.9z
	 M255.3,407.7l-35.8-19.6l-1.5-0.8l37.4-21.4l37.4,21.4l-1.5,0.8L255.3,407.7z M298.9,433.4l-37.7,20.5v-36l37.7-20.6V433.4z
	 M310.8,398.1l0-10.7c0-0.3-0.1-0.7-0.1-1c0-0.2,0-0.4-0.1-0.6c-0.1-0.5-0.3-1-0.6-1.4c-0.1-0.2-0.2-0.3-0.3-0.4
	c-0.2-0.3-0.4-0.6-0.6-0.8c-0.1-0.1-0.3-0.2-0.5-0.4c-0.2-0.2-0.5-0.4-0.7-0.6l0,0l0,0l-46.5-26.6v-47.3l43.2-23.6l50.2,35.4v46.6
	c0,0.6,0.1,1.3,0.3,1.8L310.8,398.1z M361.1,310.2l-50.3-35.4v-43.2l54.2-35.3l39.2,21.4v67.8L361.1,310.2z M404.2,383.8l-37.7-20.5
	v-36l37.7,20.6V383.8z M453.7,363.3L416,383.8v-36l37.7-20.6V363.3z M447.5,317.1L446,318l-35.8,19.6L374.3,318l-1.5-0.8l37.4-21.4
	L447.5,317.1z M410.1,157.9l-35.9-19.6l-1.5-0.8l37.4-21.4l37.4,21.4l-1.5,0.8L410.1,157.9z"/>
<polygon class="st1" points="447.5,137.5 446,138.3 410.1,157.9 374.3,138.3 372.8,137.5 410.1,116.1 "/>
<polygon class="st1" points="453.7,147.6 453.7,183.6 416,204.2 416,168.1 "/>
<polygon class="st1" points="404.2,168.1 404.2,204.2 366.5,183.6 366.5,147.6 "/>
<polygon class="st1" points="137.9,137.5 136.4,138.3 100.6,157.9 64.7,138.3 63.2,137.5 100.6,116.1 "/>
<polygon class="st1" points="94.7,168.2 94.7,204.2 57,183.6 57,147.6 "/>
<polygon class="st1" points="144.2,147.6 144.2,183.6 106.5,204.2 106.5,168.1 "/>
<polygon class="st1" points="292.7,387.2 291.2,388.1 255.3,407.7 219.5,388.1 218,387.2 255.3,365.8 "/>
<polygon class="st1" points="249.4,417.9 249.4,453.9 211.8,433.4 211.8,397.4 "/>
<polygon class="st1" points="298.9,397.4 298.9,433.4 261.3,453.9 261.3,417.9 "/>
</svg>
