<?xml version="1.0" encoding="utf-8"?>
<!-- Generator: Adobe Illustrator 25.2.1, SVG Export Plug-In . SVG Version: 6.00 Build 0)  -->
<svg version="1.1" id="Layer_1" xmlns="http://www.w3.org/2000/svg" xmlns:xlink="http://www.w3.org/1999/xlink" x="0px" y="0px"
	 viewBox="0 0 512 512" style="enable-background:new 0 0 512 512;" xml:space="preserve">
<style type="text/css">
	.st0{fill:#57A4FF;}
	.st1{opacity:0.5;fill:#57A4FF;}
</style>
<path class="st0" d="M125.5,372.7c-2.3-2.4-6.1-2.4-8.5-0.1c-2.4,2.3-2.4,6.1-0.1,8.5c0,0,0,0,0.1,0.1l14.8,14.8
	c2.3,2.4,6.1,2.4,8.5,0.1c2.4-2.3,2.4-6.1,0.1-8.5c0,0,0,0-0.1-0.1L125.5,372.7z"/>
<path class="st0" d="M448.7,120.5l-56.2-56.2c-6.8-6.8-17.8-6.8-24.6,0L246.5,185.8l-98-98c-2.9-2.9-7.6-2.9-10.5,0l-1.9,1.9
	l-7.1-7.2c-5.9-6-14-9.4-22.4-9.4h-0.1c-8.4,0-16.3,3.3-22.2,9.2c-5.9,5.9-9.2,13.8-9.2,22.2c0,8.4,3.3,16.3,9.2,22.2l7.3,7.3
	l-31.1,30.8c-1.4,1.4-2.2,3.2-2.2,5.2c0,2,0.8,3.9,2.2,5.3l67.3,67.3c2.9,2.9,7.6,2.8,10.5-0.1c2.8-2.9,2.8-7.4,0-10.4l-62-62
	l18.7-18.4l92.9,92.9L65.5,366.8c-3.3,3.3-5.1,7.7-5.1,12.3c0,4.7,1.8,9,5.1,12.3l56.2,56.1c3.4,3.4,7.8,5.1,12.3,5.1
	s8.9-1.7,12.3-5.1l122.2-122.2l87.8,87.8c0.3,0.3,0.7,0.6,1,0.8c0.1,0.1,0.2,0.1,0.3,0.2c0.3,0.2,0.7,0.4,1,0.5l0.2,0.1
	c0.3,0.1,0.7,0.2,1,0.3l64.1,15.8c1.9,0.5,3.9,0.2,5.6-0.9c1.7-1,2.9-2.7,3.4-4.6c0.3-1.2,0.3-2.4,0-3.5L417,357.9
	c-0.1-0.3-0.2-0.7-0.3-1c0-0.1,0-0.1-0.1-0.2c-0.1-0.3-0.3-0.7-0.5-1c-0.1-0.1-0.1-0.2-0.2-0.3c-0.2-0.4-0.5-0.7-0.8-1l-87.8-87.8
	l121.5-121.4C455.5,138.4,455.5,127.3,448.7,120.5z M102.1,123.7l-7.4-7.4c-3.1-3.1-4.9-7.3-4.9-11.8s1.7-8.6,4.9-11.8
	c3.1-3.1,7.3-4.9,11.8-4.9h0c4.4,0,8.7,1.8,11.8,5l7.2,7.3l-23.3,23.3L102.1,123.7z M105.4,141.3l37.8-37.8l10.7,10.7l-37.8,37.8
	L105.4,141.3z M135.8,437.1c-1,1-2.7,1-3.7,0L76,381c-0.5-0.5-0.8-1.1-0.8-1.8s0.3-1.3,0.8-1.8l83-83l25.8,25.8
	c2.9,2.9,7.6,2.9,10.5,0.1c1.4-1.4,2.2-3.2,2.2-5.2c0-2-0.7-3.9-2.1-5.3l-25.9-25.9l28.8-28.8l59.8,59.8L135.8,437.1z M415.5,413.6
	l-39.4-9.7l29.7-29.7L415.5,413.6z M399.3,359.7l-37.8,37.8L126.6,162.6l37.8-37.8L399.3,359.7z M438.2,134.7L316.8,256.1L257,196.3
	l23.3-23.3l25.8,25.8c2.9,2.9,7.6,2.9,10.5,0.1c2.9-2.9,3-7.6,0.1-10.5l-25.9-25.9l50.2-50.2l14.8,14.9c2.8,2.9,7.6,3,10.5,0.1
	c1.4-1.4,2.2-3.2,2.2-5.2c0-2-0.7-3.9-2.1-5.3l-15-15l26.9-27c1-1,2.6-1,3.7,0l56.2,56.2C439.2,132,439.2,133.7,438.2,134.7z"/>
<rect x="236.2" y="95" transform="matrix(0.7071 -0.7071 0.7071 0.7071 -107.6255 262.419)" class="st1" width="53.5" height="332.2"/>
</svg>
