<?xml version="1.0" encoding="utf-8"?>
<!-- Generator: Adobe Illustrator 25.2.1, SVG Export Plug-In . SVG Version: 6.00 Build 0)  -->
<svg version="1.1" id="Layer_1" xmlns="http://www.w3.org/2000/svg" xmlns:xlink="http://www.w3.org/1999/xlink" x="0px" y="0px"
	 viewBox="0 0 512 512" style="enable-background:new 0 0 512 512;" xml:space="preserve">
<style type="text/css">
	.st0{fill:#57A4FF;}
	.st1{opacity:0.5;fill:#57A4FF;}
</style>
<g>
	<path class="st0" d="M176.3,257.3h-30.9c-28.3,0.1-51.3,23.1-51.4,51.4v15.5c0,4.6,3.7,8.3,8.3,8.3h117.2c4.6,0,8.3-3.8,8.2-8.3
		v-15.5C227.6,280.4,204.5,257.4,176.3,257.3z M211.1,315.9H110.5v-7.1c0.1-19.1,15.7-34.7,34.8-34.8h30.9
		c19.1,0.1,34.7,15.7,34.8,34.8V315.9z"/>
	<path class="st0" d="M408.7,302.8l-142.2,0l-0.2,0c-4.2,0.3-7.5,3.6-7.8,7.8c-0.3,4.6,3.2,8.5,7.8,8.8l142.3,0l0.1,0
		c4.2-0.3,7.5-3.6,7.8-7.8c0.1-2.2-0.6-4.3-2.1-6C412.9,303.9,410.9,302.9,408.7,302.8z"/>
	<path class="st0" d="M188.2,182.9c-7.2-7.2-17.2-11.4-27.3-11.4h0c-10.2,0-19.8,3.9-27,11l-0.4,0.4l-0.1,0.1
		c-7.3,7.3-11.3,17-11.3,27.3c0,10.3,4,20,11.3,27.4c7.5,7.5,17.4,11.3,27.4,11.3c9.8,0,19.5-3.7,27-11l0.4-0.4
		c7.3-7.3,11.3-17,11.3-27.3C199.5,199.9,195.5,190.2,188.2,182.9z M176.5,225.9l-0.2,0.2c-8.6,8.4-22.6,8.3-31.1-0.2
		c-8.6-8.6-8.6-22.7,0-31.3l0.2-0.2c8.6-8.3,22.5-8.2,31,0.2l0.7,0.7C185.1,204,184.9,217.5,176.5,225.9z"/>
	<path class="st0" d="M425.2,102.8H85.5c-21.1,0.1-38.2,17.2-38.3,38.3v224.8c0,21,17.2,38.2,38.3,38.3h339.6
		c21.1-0.1,38.2-17.2,38.3-38.3V141.1C463.4,120,446.2,102.8,425.2,102.8z M446.9,365.9c0,11.9-9.8,21.7-21.7,21.7H85.5
		c-11.9,0-21.7-9.8-21.7-21.7V141.1c0-11.9,9.8-21.7,21.7-21.7h339.6c12,0,21.7,9.8,21.7,21.7V365.9z"/>
	<path class="st1" d="M211.1,308.7v7.2H110.5v-7.1c0.1-19.1,15.7-34.7,34.8-34.8h30.9C195.3,274,211,289.6,211.1,308.7z"/>
	<path class="st1" d="M176.5,225.9l-0.2,0.2c-8.6,8.4-22.6,8.3-31.1-0.2c-8.6-8.6-8.6-22.7,0-31.3l0.2-0.2c8.6-8.3,22.5-8.2,31,0.2
		l0.7,0.7C185.1,204,184.9,217.5,176.5,225.9z"/>
	<path class="st0" d="M408.7,187.7l-142.2,0l-0.2,0c-4.2,0.3-7.5,3.6-7.8,7.8c-0.1,2.2,0.6,4.3,2.1,6c1.5,1.7,3.5,2.7,5.7,2.8
		l142.3,0l0.1,0c4.2-0.3,7.5-3.6,7.8-7.8c0.1-2.2-0.6-4.3-2.1-6C412.9,188.8,410.9,187.8,408.7,187.7z"/>
	<path class="st0" d="M408.7,245.2l-142.2,0l-0.2,0c-4.2,0.3-7.5,3.6-7.8,7.8c-0.1,2.2,0.6,4.3,2.1,6c1.5,1.7,3.5,2.7,5.7,2.8
		l142.3,0l0.1,0c4.2-0.3,7.5-3.6,7.8-7.8c0.1-2.2-0.6-4.3-2.1-6C412.9,246.4,410.9,245.4,408.7,245.2z"/>
</g>
</svg>
