<?xml version="1.0" encoding="utf-8"?>
<!-- Generator: Adobe Illustrator 25.2.1, SVG Export Plug-In . SVG Version: 6.00 Build 0)  -->
<svg version="1.1" id="Capa_1" xmlns="http://www.w3.org/2000/svg" xmlns:xlink="http://www.w3.org/1999/xlink" x="0px" y="0px"
	 viewBox="0 0 512 512" style="enable-background:new 0 0 512 512;" xml:space="preserve">
<style type="text/css">
	.st0{fill:#57A4FF;}
	.st1{opacity:0.5;fill:#57A4FF;}
</style>
<g>
	<g>
		<g>
			<path class="st0" d="M447.2,266.1c-5,0-9.5,1.2-13.6,3c-6.2-7.9-15.8-13-26.6-13c-5.6,0-10.7,1.5-15.2,3.7l-0.5,0.3l-13.8,8.2
				c-6.2-7.4-15.5-12.2-25.9-12.2c-5.6,0-10.7,1.5-15.2,3.7l-0.5,0.3L283,292.6c-11.9-3.5-25.2-7.4-38-11c-13.5-3.8-26.5-7.4-37-10
				c-5.2-1.3-9.8-2.4-13.5-3.2c-1.9-0.4-3.5-0.7-5-0.9c-1.5-0.2-2.7-0.4-4.1-0.4c-1.1,0-2,0.1-3.1,0.2c-3.9,0.5-9.4,1.7-16,3.2
				c-13.4,3.1-30.4,7.7-39.8,10.3v-15.9c0-11.1-9.1-20.1-20.1-20.1H51.1c-11.1,0-20.1,9.1-20.1,20.1v155.9c0,11.1,9,20.1,20.1,20.1
				h55.3c11.1,0,20.1-9,20.1-20.1v-12.1c11.9,2.6,38.4,8.3,66.4,14.1c18.9,3.9,38.4,7.8,54.5,10.7c8.1,1.5,15.3,2.7,21.2,3.6
				c6,0.9,10.4,1.4,13.8,1.4c2.6,0,5.1-0.5,7.8-1.3c5-1.4,10.7-3.8,17.2-7c22.7-11.1,55.4-31.8,86.2-52.4
				c30.7-20.5,59.5-40.8,73.6-50.5c8.8-6.1,13.8-16.4,13.8-27.2C481,281.3,465.9,266.2,447.2,266.1z M111.4,420.7c0,2.7-2.3,5-5,5
				H51.1c-2.7,0-5-2.3-5-5V264.8c0-2.7,2.3-5,5-5h55.3c2.7,0,5,2.3,5,5V420.7z M458.7,314.7c-17.3,11.9-56.1,39.3-93.6,63.7
				c-18.8,12.2-37.2,23.6-52.3,31.9c-7.5,4.1-14.3,7.5-19.7,9.7c-2.7,1.1-5,2-6.9,2.5c-1.9,0.5-3.3,0.7-3.8,0.7
				c-1.7,0-6-0.4-11.6-1.2c-19.8-2.9-56.9-10.3-88.8-17c-16-3.3-30.7-6.5-41.4-8.8c-6.2-1.3-11-2.4-14-3v-96.7
				c1.5-0.4,3.4-0.9,5.7-1.6c8-2.1,20.1-5.4,31-8.1c5.4-1.3,10.6-2.5,14.6-3.4c2-0.4,3.8-0.8,5.2-1c1.3-0.2,2.4-0.3,2.4-0.3
				c0,0,0.8,0,1.9,0.2c4.2,0.6,12.7,2.6,23.1,5.3c31.3,8.2,80.7,23,100.6,29c6.9,2.1,13.2,5.2,17.3,9c2.1,1.9,3.6,3.9,4.7,6.1
				c1,2.2,1.6,4.6,1.6,7.5c0,5.9-2.4,11.2-6.3,15.1c-3.9,3.8-9.1,6.2-14.9,6.2l-19.5-1.9l-66.4-8.5c-4.1-0.5-7.9,2.4-8.4,6.5
				c-0.5,4.1,2.4,7.9,6.5,8.4l66.6,8.6l20.6,2h0.4c20.1,0,36.4-16.3,36.4-36.4c0-5.1-1.1-9.8-3.1-14c-3-6.3-7.8-11.1-13.2-14.8
				c-5.5-3.7-11.6-6.4-17.9-8.3c-3.5-1.1-7.9-2.4-13-3.9l40.9-25.1c2.7-1.3,5.4-2,8.2-2c4.9,0,9.3,1.9,12.6,4.9l-20.2,12
				c-3.6,2.1-4.8,6.8-2.6,10.3c2.1,3.6,6.8,4.8,10.3,2.6l46.9-27.8c2.7-1.3,5.4-2.1,8.3-2.1c5.2,0,9.9,2.2,13.3,5.6l-54.7,32.4
				c-3.6,2.1-4.8,6.8-2.6,10.3c2.1,3.6,6.8,4.8,10.3,2.6l59.1-35c0.6-0.1,1.2-0.2,1.7-0.5c1.2-0.5,2.2-1.3,3-2.3l1.8-1.1
				c2.7-1.3,5.4-2.1,8.3-2.1c5.2,0,9.8,2.1,13.2,5.5c3.4,3.4,5.5,8.1,5.5,13.2C465.9,306.3,463,311.8,458.7,314.7z"/>
			<path class="st1" d="M111.4,264.8v155.9c0,2.7-2.3,5-5,5H51.1c-2.7,0-5-2.3-5-5V264.8c0-2.7,2.3-5,5-5h55.3
				C109.1,259.8,111.4,262.1,111.4,264.8z"/>
		</g>
	</g>
</g>
<path class="st1" d="M311.3,154.2c0,23.3-10.2,44.2-26.4,58.6c8,3.6,16.8,5.6,26.1,5.6c35.4,0,64.2-28.8,64.2-64.2
	S346.3,90,310.9,90c-9.3,0-18.1,2-26.1,5.6C301,109.9,311.3,130.9,311.3,154.2z"/>
<path class="st0" d="M310.9,75.8c-14.2,0-27.5,3.8-39,10.4c-11.5-6.6-24.8-10.4-39-10.4c-43.2,0-78.3,35.1-78.3,78.3
	c0,43.2,35.1,78.3,78.3,78.3c14.2,0,27.5-3.8,39-10.4c11.5,6.6,24.8,10.4,39,10.4c43.2,0,78.3-35.1,78.3-78.3
	C389.3,111,354.1,75.8,310.9,75.8z M284.8,212.8c16.2-14.4,26.4-35.3,26.4-58.6c0-23.3-10.2-44.2-26.4-58.6c8-3.6,16.8-5.6,26.1-5.6
	c35.4,0,64.2,28.8,64.2,64.2s-28.8,64.2-64.2,64.2C301.6,218.4,292.8,216.4,284.8,212.8z M232.9,218.4c-35.4,0-64.2-28.8-64.2-64.2
	S197.5,90,232.9,90c9.3,0,18.1,2,26.1,5.6c2.3,1,4.6,2.2,6.7,3.5c2.1,1.3,4.2,2.7,6.2,4.2c15.3,11.7,25.2,30.2,25.2,50.9
	s-9.9,39.2-25.2,50.9c-2,1.5-4,2.9-6.2,4.2c-2.2,1.3-4.4,2.5-6.7,3.5C251,216.4,242.2,218.4,232.9,218.4z"/>
</svg>
