<?xml version="1.0" encoding="utf-8"?>
<!-- Generator: Adobe Illustrator 25.2.1, SVG Export Plug-In . SVG Version: 6.00 Build 0)  -->
<svg version="1.1" id="Layer_1" xmlns="http://www.w3.org/2000/svg" xmlns:xlink="http://www.w3.org/1999/xlink" x="0px" y="0px"
	 viewBox="0 0 512 512" style="enable-background:new 0 0 512 512;" xml:space="preserve">
<style type="text/css">
	.st0{fill:#57A4FF;}
</style>
<g>
	<path class="st0" d="M277.3,469.5h-39.6c-13.4,0-24.7-10-26.3-23.3l-4.2-33.1c-8.4-2.7-16.6-6.1-24.3-10.1l-26.4,20.5
		c-10.7,8.3-25.8,7.3-35.1-2.2l-27.8-27.8c-9.5-9.2-10.4-24.3-2.2-35l20.5-26.4c-4-7.7-7.3-15.8-10.1-24.3l-33.2-4.2
		c-13.2-1.6-23.3-12.9-23.3-26.3v-39.6c0-13.4,10-24.7,23.3-26.3l33.1-4.2c2.7-8.4,6.1-16.6,10.1-24.3l-20.5-26.4
		c-8.3-10.7-7.3-25.8,2.2-35.1l27.8-27.8c9.2-9.5,24.3-10.4,35-2.2l26.4,20.5c7.7-3.9,15.8-7.3,24.3-10.1l4.2-33.2
		c1.6-13.2,12.9-23.3,26.3-23.3h39.6c13.4,0,24.7,10,26.3,23.3l4.2,33.1c8.4,2.7,16.6,6.1,24.3,10.1l26.4-20.5
		c10.7-8.3,25.8-7.3,35.1,2.2l27.8,27.8c9.5,9.2,10.4,24.3,2.2,35L403,182.9c4,7.7,7.3,15.8,10.1,24.3l33.2,4.2
		c13.2,1.6,23.2,12.9,23.2,26.3v39.6c0,13.4-10,24.7-23.3,26.3l-33.1,4.2c-2.7,8.4-6.1,16.6-10.1,24.3l20.5,26.4
		c8.3,10.7,7.3,25.8-2.2,35.1l-27.8,27.8c-9.2,9.5-24.3,10.5-35,2.2L332.1,403c-7.7,4-15.8,7.3-24.3,10.1l-4.2,33.2
		C301.9,459.5,290.7,469.5,277.3,469.5L277.3,469.5z M182.1,383.6c1.5,0,3,0.4,4.3,1.1c9.7,5.4,20.3,9.8,31.3,13
		c3.4,1,5.9,3.9,6.3,7.4L229,444c0.5,4.4,4.4,7.8,8.7,7.8h39.6c4.4,0,8.2-3.4,8.7-7.8l5-38.9c0.4-3.5,2.9-6.4,6.3-7.4
		c11.1-3.2,21.6-7.6,31.3-13c3.1-1.7,6.9-1.4,9.7,0.7l30.9,24c3.6,2.8,8.5,2.5,11.6-0.6l28-28c3.2-3.1,3.4-8.1,0.7-11.7l-24-30.9
		c-2.2-2.8-2.5-6.6-0.7-9.7c5.4-9.7,9.8-20.3,13-31.3c1-3.4,3.9-5.9,7.4-6.3L444,286c4.4-0.5,7.8-4.4,7.8-8.7v-39.6
		c0-4.4-3.4-8.2-7.8-8.7l-38.9-5c-3.5-0.4-6.4-2.9-7.4-6.3c-3.2-11.1-7.6-21.6-13-31.3c-1.7-3.1-1.4-6.9,0.7-9.7l24-30.9
		c2.8-3.6,2.5-8.6-0.6-11.6l-28-28c-3.1-3.2-8.1-3.5-11.7-0.7l-30.9,24c-2.8,2.2-6.6,2.5-9.7,0.7c-9.7-5.4-20.2-9.8-31.3-13
		c-3.4-1-5.9-3.9-6.3-7.4L286,71c-0.5-4.5-4.4-7.9-8.7-7.9h-39.6c-4.4,0-8.2,3.4-8.7,7.8l-5,38.9c-0.4,3.5-2.9,6.4-6.3,7.4
		c-11.1,3.2-21.6,7.6-31.3,13c-3.1,1.7-6.9,1.4-9.7-0.7l-30.9-24c-3.6-2.8-8.5-2.5-11.6,0.6l-28,28c-3.2,3.1-3.4,8.1-0.7,11.7
		l24,30.9c2.2,2.8,2.5,6.6,0.7,9.7c-5.5,9.7-9.8,20.3-13,31.3c-1,3.4-3.9,5.9-7.4,6.3L71,229c-4.4,0.5-7.8,4.4-7.8,8.7v39.6
		c0,4.4,3.4,8.2,7.8,8.7l38.9,5c3.5,0.4,6.4,2.9,7.4,6.3c3.2,11.1,7.6,21.6,13,31.3c1.7,3.1,1.4,6.9-0.7,9.7l-24,30.9
		c-2.8,3.6-2.5,8.6,0.6,11.6l28,28c3.1,3.2,8.1,3.4,11.7,0.7l30.9-24C178.2,384.3,180.1,383.6,182.1,383.6L182.1,383.6z"/>
</g>
<g>
	<path class="st0" d="M257.5,345.8c-48.7,0-88.3-39.6-88.3-88.3s39.6-88.3,88.3-88.3s88.3,39.6,88.3,88.3S306.2,345.8,257.5,345.8z
		 M257.5,186.8c-39,0-70.7,31.7-70.7,70.7s31.7,70.7,70.7,70.7s70.7-31.7,70.7-70.7S296.5,186.8,257.5,186.8z"/>
</g>
</svg>
