<?xml version="1.0" encoding="utf-8"?>
<!-- Generator: Adobe Illustrator 25.2.1, SVG Export Plug-In . SVG Version: 6.00 Build 0)  -->
<svg version="1.1" id="Layer_1" xmlns="http://www.w3.org/2000/svg" xmlns:xlink="http://www.w3.org/1999/xlink" x="0px" y="0px"
	 viewBox="0 0 512 512" style="enable-background:new 0 0 512 512;" xml:space="preserve">
<style type="text/css">
	.st0{fill:#57A4FF;}
	.st1{opacity:0.5;fill:#57A4FF;}
</style>
<path class="st0" d="M434.8,111.5c0-22-18.7-42.4-52.6-57.3c-33.4-14.7-78.5-22.8-126.9-22.8c-48.4,0-93.5,8.1-126.9,22.8
	c-33.9,14.9-52.6,35.3-52.6,57.3c0,1.7,0.1,3.4,0.4,5.1h-0.4v278.9c0,22,18.7,42.4,52.6,57.3c33.4,14.7,78.5,22.8,126.9,22.8
	c48.4,0,93.5-8.1,126.9-22.8c33.9-14.9,52.6-35.3,52.6-57.3V116.6h-0.3C434.7,114.9,434.8,113.2,434.8,111.5L434.8,111.5z
	 M416.7,395.5c0,14.5-16.4,30.1-43.8,41.7c-30.8,13-72.5,20.2-117.5,20.2c-45,0-86.7-7.2-117.5-20.2C110.4,425.6,94,410,94,395.5
	v-35.1c13.8,12.7,34.9,23.4,61.3,31.1c29.3,8.6,63.9,13.1,100,13.1s70.7-4.5,100-13.1c26.4-7.8,47.5-18.5,61.3-31.1V395.5z
	 M416.7,324.5c0,14.5-16.4,30.1-43.8,41.7c-30.8,13-72.5,20.2-117.5,20.2c-45,0-86.7-7.2-117.5-20.2C110.4,354.6,94,339,94,324.5
	v-35.1c13.8,12.7,34.9,23.4,61.3,31.1c29.3,8.6,63.9,13.1,100,13.1s70.7-4.5,100-13.1c26.4-7.8,47.5-18.5,61.3-31.1V324.5z
	 M416.7,253.5c0,14.5-16.4,30.1-43.8,41.7c-30.8,13-72.5,20.2-117.5,20.2c-45,0-86.7-7.2-117.5-20.2C110.4,283.6,94,268,94,253.5
	v-35.1c13.8,12.7,34.9,23.4,61.3,31.1c29.3,8.6,63.9,13.1,100,13.1s70.7-4.5,100-13.1c26.4-7.8,47.5-18.5,61.3-31.1V253.5z
	 M416.7,182.5c0,14.5-16.4,30.1-43.8,41.7c-30.8,13-72.5,20.2-117.5,20.2c-45,0-86.7-7.2-117.5-20.2C110.4,212.6,94,197,94,182.5
	v-35.1c13.8,12.7,34.9,23.4,61.3,31.1c29.3,8.6,63.9,13.1,100,13.1s70.7-4.5,100-13.1c26.4-7.8,47.5-18.5,61.3-31.1V182.5z
	 M372.8,153.2c-30.8,13-72.5,20.2-117.5,20.2c-45,0-86.7-7.2-117.5-20.2C110.4,141.6,94,126,94,111.5s16.4-30.1,43.8-41.7
	c30.8-13,72.5-20.2,117.5-20.2c45,0,86.7,7.2,117.5,20.2c27.4,11.6,43.8,27.2,43.8,41.7S400.3,141.6,372.8,153.2z"/>
<path class="st1" d="M416.7,360.4v35.1c0,14.5-16.4,30.1-43.8,41.7c-30.8,13-72.5,20.2-117.5,20.2c-45,0-86.7-7.2-117.5-20.2
	C110.4,425.6,94,410,94,395.5v-35.1c13.8,12.7,34.9,23.4,61.3,31.1c29.3,8.6,63.9,13.1,100,13.1s70.7-4.5,100-13.1
	C381.8,383.7,402.9,373,416.7,360.4z"/>
<path class="st1" d="M416.7,218.4v35.1c0,14.5-16.4,30.1-43.8,41.7c-30.8,13-72.5,20.2-117.5,20.2c-45,0-86.7-7.2-117.5-20.2
	C110.4,283.6,94,268,94,253.5v-35.1c13.8,12.7,34.9,23.4,61.3,31.1c29.3,8.6,63.9,13.1,100,13.1s70.7-4.5,100-13.1
	C381.8,241.7,402.9,231,416.7,218.4z"/>
</svg>
