<svg version="1.2" xmlns="http://www.w3.org/2000/svg" viewBox="0 0 1100 571" width="1100" height="571">
	<title>chain-bridge-svg</title>
	<defs>
		<linearGradient id="g1" x1="54.7" y1="536" x2="341.6" y2="306.1" gradientUnits="userSpaceOnUse">
			<stop offset="0" stop-color="#000000"/>
			<stop offset=".8" stop-color="#272525"/>
		</linearGradient>
		<linearGradient id="g2" x1="93" y1="85" x2="93" y2="165" gradientUnits="userSpaceOnUse">
			<stop offset="0" stop-color="#ff4c4c"/>
			<stop offset="1" stop-color="#7d0000"/>
		</linearGradient>
		<linearGradient id="g3" x1="93" y1="56" x2="93" y2="128" gradientUnits="userSpaceOnUse">
			<stop offset="0" stop-color="#4f0000"/>
			<stop offset="1" stop-color="#ff1f1f"/>
		</linearGradient>
		<linearGradient id="g4" x1="93.5" y1="82" x2="93.5" y2="129" gradientUnits="userSpaceOnUse">
			<stop offset="0" stop-color="#000000"/>
			<stop offset="1" stop-color="#791e1e"/>
		</linearGradient>
		<linearGradient id="g5" x1="122" y1="221.9" x2="94.5" y2="273.1" gradientUnits="userSpaceOnUse">
			<stop offset="0" stop-color="#f30000"/>
			<stop offset="1" stop-color="#ff0000" stop-opacity="0"/>
		</linearGradient>
		<linearGradient id="g6" x1="122" y1="355.9" x2="94.5" y2="407.1" gradientUnits="userSpaceOnUse">
			<stop offset="0" stop-color="#f30000"/>
			<stop offset="1" stop-color="#ff0000" stop-opacity="0"/>
		</linearGradient>
		<linearGradient id="g7" x1="93" y1="262" x2="93" y2="346" gradientUnits="userSpaceOnUse">
			<stop offset="0" stop-color="#ffffff"/>
			<stop offset="1" stop-color="#ffffff" stop-opacity="0"/>
		</linearGradient>
		<clipPath clipPathUnits="userSpaceOnUse" id="cp1">
			<path d="m72 283h42v42h-42z"/>
		</clipPath>
		<linearGradient id="g8" x1="93" y1="290.4" x2="93" y2="317.6" gradientUnits="userSpaceOnUse">
			<stop offset="0" stop-color="#ff8888"/>
			<stop offset="1" stop-color="#ff2121"/>
		</linearGradient>
		<linearGradient id="g9" x1="93" y1="396" x2="93" y2="480" gradientUnits="userSpaceOnUse">
			<stop offset="0" stop-color="#ffffff"/>
			<stop offset="1" stop-color="#ffffff" stop-opacity="0"/>
		</linearGradient>
		<clipPath clipPathUnits="userSpaceOnUse" id="cp2">
			<path d="m72 417h42v42h-42z"/>
		</clipPath>
		<linearGradient id="g10" x1="81" y1="444" x2="81" y2="446.4" gradientUnits="userSpaceOnUse">
			<stop offset="0" stop-color="#ff8888"/>
			<stop offset="1" stop-color="#ff2121"/>
		</linearGradient>
		<linearGradient id="g11" x1="88.4" y1="417" x2="88.4" y2="459" gradientUnits="userSpaceOnUse">
			<stop offset="0" stop-color="#ff8888"/>
			<stop offset="1" stop-color="#ff2121"/>
		</linearGradient>
		<linearGradient id="g12" x1="99.9" y1="449.9" x2="99.9" y2="459" gradientUnits="userSpaceOnUse">
			<stop offset="0" stop-color="#ff8888"/>
			<stop offset="1" stop-color="#ff2121"/>
		</linearGradient>
		<linearGradient id="g13" x1="271.5" y1="-1516.4" x2="374" y2="-1516.5" gradientUnits="userSpaceOnUse">
			<stop offset="0" stop-color="#dc2c2c"/>
			<stop offset="1" stop-color="#ffe1e1"/>
		</linearGradient>
		<linearGradient id="g14" x1="271.5" y1="2257.4" x2="374" y2="2257.5" gradientUnits="userSpaceOnUse">
			<stop offset="0" stop-color="#dc2c2c"/>
			<stop offset="1" stop-color="#ffe1e1"/>
		</linearGradient>
		<linearGradient id="g15" x1="553.6" y1="2257.4" x2="456.9" y2="2257.4" gradientUnits="userSpaceOnUse">
			<stop offset="0" stop-color="#dc2c2c"/>
			<stop offset="1" stop-color="#ffe1e1"/>
		</linearGradient>
		<linearGradient id="g16" x1="553.6" y1="-1516.4" x2="456.9" y2="-1516.5" gradientUnits="userSpaceOnUse">
			<stop offset="0" stop-color="#dc2c2c"/>
			<stop offset="1" stop-color="#ffe1e1"/>
		</linearGradient>
		<linearGradient id="g17" x1="1010.7" y1="0" x2="0" y2="0" gradientUnits="userSpaceOnUse">
			<stop offset="0" stop-color="#dc2c2c"/>
			<stop offset="1" stop-color="#ffe1e1"/>
		</linearGradient>
		<linearGradient id="g18" x1="299.2" y1="343.3" x2="250.7" y2="433.7" gradientUnits="userSpaceOnUse">
			<stop offset="0" stop-color="#ff2e2e"/>
			<stop offset="1" stop-color="#fb0000" stop-opacity=".5"/>
		</linearGradient>
		<linearGradient id="g19" x1="414" y1="235" x2="414" y2="319" gradientUnits="userSpaceOnUse">
			<stop offset="0" stop-color="#ffffff"/>
			<stop offset="1" stop-color="#ffffff" stop-opacity="0"/>
		</linearGradient>
		<linearGradient id="g20" x1="414" y1="327" x2="414" y2="411" gradientUnits="userSpaceOnUse">
			<stop offset="0" stop-color="#ffffff"/>
			<stop offset="1" stop-color="#ffffff" stop-opacity="0"/>
		</linearGradient>
		<linearGradient id="g21" x1="414" y1="419" x2="414" y2="503" gradientUnits="userSpaceOnUse">
			<stop offset="0" stop-color="#ffffff"/>
			<stop offset="1" stop-color="#ffffff" stop-opacity="0"/>
		</linearGradient>
		<linearGradient id="g22" x1="414" y1="278.1" x2="414" y2="280.6" gradientUnits="userSpaceOnUse">
			<stop offset="0" stop-color="#ff8888"/>
			<stop offset="1" stop-color="#ff2121"/>
		</linearGradient>
		<linearGradient id="g23" x1="414" y1="268.1" x2="414" y2="290.7" gradientUnits="userSpaceOnUse">
			<stop offset="0" stop-color="#ff8888"/>
			<stop offset="1" stop-color="#ff2121"/>
		</linearGradient>
		<linearGradient id="g24" x1="423.9" y1="256" x2="423.9" y2="263.4" gradientUnits="userSpaceOnUse">
			<stop offset="0" stop-color="#ff8888"/>
			<stop offset="1" stop-color="#ff2121"/>
		</linearGradient>
		<linearGradient id="g25" x1="414" y1="290.3" x2="414" y2="298" gradientUnits="userSpaceOnUse">
			<stop offset="0" stop-color="#ff8888"/>
			<stop offset="1" stop-color="#ff2121"/>
		</linearGradient>
		<linearGradient id="g26" x1="414" y1="370.1" x2="414" y2="372.6" gradientUnits="userSpaceOnUse">
			<stop offset="0" stop-color="#ff8888"/>
			<stop offset="1" stop-color="#ff2121"/>
		</linearGradient>
		<linearGradient id="g27" x1="414" y1="360.1" x2="414" y2="382.7" gradientUnits="userSpaceOnUse">
			<stop offset="0" stop-color="#ff8888"/>
			<stop offset="1" stop-color="#ff2121"/>
		</linearGradient>
		<linearGradient id="g28" x1="423.9" y1="348" x2="423.9" y2="355.4" gradientUnits="userSpaceOnUse">
			<stop offset="0" stop-color="#ff8888"/>
			<stop offset="1" stop-color="#ff2121"/>
		</linearGradient>
		<linearGradient id="g29" x1="414" y1="382.3" x2="414" y2="390" gradientUnits="userSpaceOnUse">
			<stop offset="0" stop-color="#ff8888"/>
			<stop offset="1" stop-color="#ff2121"/>
		</linearGradient>
		<linearGradient id="g30" x1="414" y1="462.1" x2="414" y2="464.6" gradientUnits="userSpaceOnUse">
			<stop offset="0" stop-color="#ff8888"/>
			<stop offset="1" stop-color="#ff2121"/>
		</linearGradient>
		<linearGradient id="g31" x1="414" y1="452.1" x2="414" y2="474.7" gradientUnits="userSpaceOnUse">
			<stop offset="0" stop-color="#ff8888"/>
			<stop offset="1" stop-color="#ff2121"/>
		</linearGradient>
		<linearGradient id="g32" x1="423.9" y1="440" x2="423.9" y2="447.4" gradientUnits="userSpaceOnUse">
			<stop offset="0" stop-color="#ff8888"/>
			<stop offset="1" stop-color="#ff2121"/>
		</linearGradient>
		<linearGradient id="g33" x1="414" y1="474.3" x2="414" y2="482" gradientUnits="userSpaceOnUse">
			<stop offset="0" stop-color="#ff8888"/>
			<stop offset="1" stop-color="#ff2121"/>
		</linearGradient>
		<linearGradient id="g34" x1="595.4" y1="-570.2" x2="679.5" y2="-570.3" gradientUnits="userSpaceOnUse">
			<stop offset="0" stop-color="#dc2c2c"/>
			<stop offset="1" stop-color="#ffe1e1"/>
		</linearGradient>
		<linearGradient id="g35" x1="838.8" y1="1313.2" x2="751.6" y2="1313.3" gradientUnits="userSpaceOnUse">
			<stop offset="0" stop-color="#dc2c2c"/>
			<stop offset="1" stop-color="#ffe1e1"/>
		</linearGradient>
		<linearGradient id="g36" x1="595.4" y1="1313.2" x2="679.5" y2="1313.3" gradientUnits="userSpaceOnUse">
			<stop offset="0" stop-color="#dc2c2c"/>
			<stop offset="1" stop-color="#ffe1e1"/>
		</linearGradient>
		<linearGradient id="g37" x1="838.8" y1="-570.2" x2="751.6" y2="-570.3" gradientUnits="userSpaceOnUse">
			<stop offset="0" stop-color="#dc2c2c"/>
			<stop offset="1" stop-color="#ffe1e1"/>
		</linearGradient>
		<linearGradient id="g38" x1="559.8" y1="313.3" x2="608.3" y2="403.7" gradientUnits="userSpaceOnUse">
			<stop offset="0" stop-color="#ff2e2e"/>
			<stop offset="1" stop-color="#fb0000" stop-opacity=".5"/>
		</linearGradient>
		<linearGradient id="g39" x1="834.8" y1="313.3" x2="883.3" y2="403.7" gradientUnits="userSpaceOnUse">
			<stop offset="0" stop-color="#ff2e2e"/>
			<stop offset="1" stop-color="#fb0000" stop-opacity=".5"/>
		</linearGradient>
		<linearGradient id="g40" x1="711" y1="378" x2="711" y2="462" gradientUnits="userSpaceOnUse">
			<stop offset="0" stop-color="#ffffff"/>
			<stop offset="1" stop-color="#ffffff" stop-opacity="0"/>
		</linearGradient>
		<linearGradient id="g41" x1="711" y1="271" x2="711" y2="355" gradientUnits="userSpaceOnUse">
			<stop offset="0" stop-color="#ffffff"/>
			<stop offset="1" stop-color="#ffffff" stop-opacity="0"/>
		</linearGradient>
		<linearGradient id="g42" x1="722.6" y1="303.2" x2="722.6" y2="305.6" gradientUnits="userSpaceOnUse">
			<stop offset="0" stop-color="#ff8888"/>
			<stop offset="1" stop-color="#ff2121"/>
		</linearGradient>
		<linearGradient id="g43" x1="722.7" y1="294.5" x2="722.7" y2="314.2" gradientUnits="userSpaceOnUse">
			<stop offset="0" stop-color="#ff8888"/>
			<stop offset="1" stop-color="#ff2121"/>
		</linearGradient>
		<linearGradient id="g44" x1="722.6" y1="410.2" x2="722.6" y2="412.6" gradientUnits="userSpaceOnUse">
			<stop offset="0" stop-color="#ff8888"/>
			<stop offset="1" stop-color="#ff2121"/>
		</linearGradient>
		<linearGradient id="g45" x1="722.7" y1="401.5" x2="722.7" y2="421.2" gradientUnits="userSpaceOnUse">
			<stop offset="0" stop-color="#ff8888"/>
			<stop offset="1" stop-color="#ff2121"/>
		</linearGradient>
		<linearGradient id="g46" x1="939.7" y1="536" x2="1226.6" y2="306.1" gradientUnits="userSpaceOnUse">
			<stop offset="0" stop-color="#000000"/>
			<stop offset=".8" stop-color="#272525"/>
		</linearGradient>
		<linearGradient id="g47" x1="1008" y1="85" x2="1008" y2="165" gradientUnits="userSpaceOnUse">
			<stop offset="0" stop-color="#ff4c4c"/>
			<stop offset="1" stop-color="#7d0000"/>
		</linearGradient>
		<linearGradient id="g48" x1="1008" y1="58" x2="1008" y2="130" gradientUnits="userSpaceOnUse">
			<stop offset="0" stop-color="#4f0000"/>
			<stop offset="1" stop-color="#ff1f1f"/>
		</linearGradient>
		<linearGradient id="g49" x1="1007.5" y1="83" x2="1007.5" y2="130" gradientUnits="userSpaceOnUse">
			<stop offset="0" stop-color="#000000"/>
			<stop offset="1" stop-color="#791e1e"/>
		</linearGradient>
		<linearGradient id="g50" x1="1039" y1="229.9" x2="1011.5" y2="281.1" gradientUnits="userSpaceOnUse">
			<stop offset="0" stop-color="#f30000"/>
			<stop offset="1" stop-color="#ff0000" stop-opacity="0"/>
		</linearGradient>
		<linearGradient id="g51" x1="1039" y1="363.9" x2="1011.5" y2="415.1" gradientUnits="userSpaceOnUse">
			<stop offset="0" stop-color="#f30000"/>
			<stop offset="1" stop-color="#ff0000" stop-opacity="0"/>
		</linearGradient>
		<linearGradient id="g52" x1="1010" y1="270" x2="1010" y2="354" gradientUnits="userSpaceOnUse">
			<stop offset="0" stop-color="#ffffff"/>
			<stop offset="1" stop-color="#ffffff" stop-opacity="0"/>
		</linearGradient>
		<clipPath clipPathUnits="userSpaceOnUse" id="cp3">
			<path d="m989 291h42v42h-42z"/>
		</clipPath>
		<linearGradient id="g53" x1="1010" y1="298.4" x2="1010" y2="325.6" gradientUnits="userSpaceOnUse">
			<stop offset="0" stop-color="#ff8888"/>
			<stop offset="1" stop-color="#ff2121"/>
		</linearGradient>
		<linearGradient id="g54" x1="1010" y1="405" x2="1010" y2="489" gradientUnits="userSpaceOnUse">
			<stop offset="0" stop-color="#ffffff"/>
			<stop offset="1" stop-color="#ffffff" stop-opacity="0"/>
		</linearGradient>
		<clipPath clipPathUnits="userSpaceOnUse" id="cp4">
			<path d="m989 426h42v42h-42z"/>
		</clipPath>
		<linearGradient id="g55" x1="1010" y1="426" x2="1010" y2="444.8" gradientUnits="userSpaceOnUse">
			<stop offset="0" stop-color="#ff8888"/>
			<stop offset="1" stop-color="#ff2121"/>
		</linearGradient>
		<linearGradient id="g56" x1="1024.1" y1="434.7" x2="1024.1" y2="436.1" gradientUnits="userSpaceOnUse">
			<stop offset="0" stop-color="#ff8888"/>
			<stop offset="1" stop-color="#ff2121"/>
		</linearGradient>
		<linearGradient id="g57" x1="997" y1="438.3" x2="997" y2="440.5" gradientUnits="userSpaceOnUse">
			<stop offset="0" stop-color="#ff8888"/>
			<stop offset="1" stop-color="#ff2121"/>
		</linearGradient>
		<linearGradient id="g58" x1="997" y1="430.4" x2="997" y2="432.5" gradientUnits="userSpaceOnUse">
			<stop offset="0" stop-color="#ff8888"/>
			<stop offset="1" stop-color="#ff2121"/>
		</linearGradient>
	</defs>
	<style>
		tspan { white-space:pre } 
		.t0 { font-size: 24px;fill: #d1401e;font-weight: 700;font-family: "DejaVuSans-Bold", "DejaVu Sans" } 
		.s1 { fill: url(#g1) } 
		.s2 { fill: url(#g2) } 
		.s3 { fill: url(#g3) } 
		.s4 { fill: url(#g4) } 
		.s5 { fill: #ffffff } 
		.s6 { fill: #000000 } 
		.s7 { fill: url(#g5) } 
		.s8 { fill: url(#g6) } 
		.s9 { fill: none;stroke: #2c2c33;stroke-width: 4 } 
		.s10 { fill: none;stroke: url(#g7);stroke-opacity: .1;stroke-width: 4 } 
		.s11 { fill: url(#g8) } 
		.s12 { fill: none;stroke: url(#g9);stroke-opacity: .1;stroke-width: 4 } 
		.s13 { fill: url(#g10) } 
		.s14 { fill: url(#g11) } 
		.s15 { fill: url(#g12) } 
		.s16 { fill: none;stroke: url(#g13);stroke-width: 2 } 
		.s17 { fill: none;stroke: url(#g14);stroke-width: 2 } 
		.s18 { fill: none;stroke: #d23e10;stroke-width: 2 } 
		.s19 { fill: none;stroke: url(#g15);stroke-width: 2 } 
		.s20 { fill: none;stroke: url(#g16);stroke-width: 2 } 
		.s21 { fill: none;stroke: url(#g17);stroke-width: 2 } 
		.s22 { fill: url(#g18) } 
		.s23 { fill: none;stroke: #ffffff;stroke-width: 4 } 
		.s24 { fill: none;stroke: url(#g19);stroke-opacity: .1;stroke-width: 4 } 
		.s25 { fill: none;stroke: url(#g20);stroke-opacity: .1;stroke-width: 4 } 
		.s26 { fill: none;stroke: url(#g21);stroke-opacity: .1;stroke-width: 4 } 
		.s27 { fill: url(#g22) } 
		.s28 { fill: url(#g23) } 
		.s29 { fill: url(#g24) } 
		.s30 { fill: url(#g25) } 
		.s31 { fill: url(#g26) } 
		.s32 { fill: url(#g27) } 
		.s33 { fill: url(#g28) } 
		.s34 { fill: url(#g29) } 
		.s35 { fill: url(#g30) } 
		.s36 { fill: url(#g31) } 
		.s37 { fill: url(#g32) } 
		.s38 { fill: url(#g33) } 
		.s39 { fill: none;stroke: url(#g34);stroke-width: 2 } 
		.s40 { fill: none;stroke: url(#g35);stroke-width: 2 } 
		.s41 { fill: none;stroke: url(#g36);stroke-width: 2 } 
		.s42 { fill: none;stroke: url(#g37);stroke-width: 2 } 
		.s43 { fill: url(#g38) } 
		.s44 { fill: url(#g39) } 
		.s45 { fill: none;stroke: url(#g40);stroke-opacity: .1;stroke-width: 4 } 
		.s46 { fill: none;stroke: url(#g41);stroke-opacity: .1;stroke-width: 4 } 
		.s47 { fill: url(#g42) } 
		.s48 { fill: url(#g43) } 
		.t49 { font-size: 24px;fill: #ffffff;font-weight: 700;font-family: "DejaVuSans-Bold", "DejaVu Sans" } 
		.s50 { fill: url(#g44) } 
		.s51 { fill: url(#g45) } 
		.s52 { fill: url(#g46) } 
		.s53 { fill: url(#g47) } 
		.s54 { fill: url(#g48) } 
		.s55 { fill: url(#g49) } 
		.s56 { fill: url(#g50) } 
		.s57 { fill: url(#g51) } 
		.s58 { fill: none;stroke: url(#g52);stroke-opacity: .1;stroke-width: 4 } 
		.s59 { fill: url(#g53) } 
		.s60 { fill: none;stroke: url(#g54);stroke-opacity: .1;stroke-width: 4 } 
		.s61 { fill: url(#g55) } 
		.s62 { fill: url(#g56) } 
		.s63 { fill: url(#g57) } 
		.s64 { fill: url(#g58) } 
	</style>
	<text id="VENDEDOR" style="transform: matrix(1,0,0,1,19,19)" >
		<tspan x="0" y="18.2" class="t0">V</tspan><tspan  y="18.2" class="t0">E</tspan><tspan  y="18.2" class="t0">N</tspan><tspan  y="18.2" class="t0">D</tspan><tspan  y="18.2" class="t0">E</tspan><tspan  y="18.2" class="t0">D</tspan><tspan  y="18.2" class="t0">O</tspan><tspan  y="18.2" class="t0">R
</tspan>
	</text>
	<text id="COMPRADOR" style="transform: matrix(1,0,0,1,917,25)" >
		<tspan x="0" y="18.2" class="t0">C</tspan><tspan  y="18.2" class="t0">O</tspan><tspan  y="18.2" class="t0">M</tspan><tspan  y="18.2" class="t0">P</tspan><tspan  y="18.2" class="t0">R</tspan><tspan  y="18.2" class="t0">A</tspan><tspan  y="18.2" class="t0">D</tspan><tspan  y="18.2" class="t0">O</tspan><tspan  y="18.2" class="t0">R
</tspan>
	</text>
	<rect id="Layer" class="s1" y="109" width="185" height="462" rx="24"></rect>
	<path id="Layer" class="s2" d="m155 85l-0.1 36.9v0.3c-0.2 0.1-0.2 0.4-0.2 0.6v0.1c0 0.3 0 0.4-0.1 0.7 0 0.2-0.2 0.3-0.2 0.5l-12.5 27.4c-0.2 0.1-0.2 0.2-0.3 0.4-0.2 0.3-0.4 0.4-0.6 0.7v0.1c-0.1 0-0.1 0.2-0.1 0.2 0 0.1 0 0.1-0.2 0.3l-0.3 0.3-0.3 0.3-0.1 0.1h-0.1c-0.2 0.1-0.5 0.4-0.8 0.6 0 0.1-0.1 0.1-0.1 0.1-0.1 0.3-0.4 0.5-0.7 0.6l-0.2 0.1h-0.1c-0.2 0.2-0.3 0.2-0.4 0.3-0.2 0-0.2 0.2-0.3 0.2-0.2 0.1-0.5 0.3-0.8 0.4-0.1 0.2-0.4 0.2-0.7 0.3-0.1 0.1-0.1 0.1-0.3 0.1-0.1 0-0.4 0.2-0.5 0.2h-0.3c-0.3 0.1-0.8 0.1-1 0.3h-0.2c-0.4 0.1-0.8 0.1-1.3 0.3h-0.1c-0.3 0.1-0.5 0.1-0.6 0.1l-47.3 7.4c-0.4 0-0.9 0.1-1.3 0.1h-4.5c-0.5 0-1-0.1-1.4-0.1h-0.1c-0.2-0.2-0.3-0.2-0.5-0.2-0.1 0-0.4-0.1-0.7-0.1 0-0.2-0.1-0.2-0.3-0.2-0.3 0-0.4-0.1-0.7-0.1-0.3 0-0.4-0.2-0.6-0.2-0.1 0-0.3-0.1-0.4-0.1-0.5 0-0.7-0.2-1-0.3-0.2 0-0.3-0.1-0.5-0.1-0.1 0-0.3-0.2-0.4-0.2-0.1 0-0.3-0.1-0.4-0.1-0.5-0.3-0.9-0.5-1.3-0.7l-34.8-20.1c-2.9-1.6-4.3-3.7-4.3-5.9l0.1-36.9v0.9c0 0.3 0 0.5 0.2 0.8 0.3 0.6 0.4 1 0.9 1.6 0.7 1 1.7 1.9 3.1 2.8l34.8 20c0.4 0.3 0.8 0.6 1.3 0.7 0.1 0 0.3 0.2 0.4 0.2 0.3 0.1 0.6 0.1 0.9 0.2 0.4 0.2 0.7 0.2 1 0.3 0.3 0.2 0.6 0.2 0.8 0.3 0.3 0 0.5 0.2 0.8 0.2 0.4 0.1 0.7 0.3 1.1 0.3 0.2 0.1 0.3 0.1 0.5 0.1 0.4 0 1 0.1 1.5 0.1h4.2c0.5 0 1 0 1.6-0.1l47.3-7.4c0.3 0 0.4-0.1 0.7-0.1 0.5-0.1 0.9-0.1 1.3-0.3h0.2c0.2-0.1 0.7-0.1 1-0.3 0.1-0.1 0.1-0.1 0.3-0.1 0.1 0 0.4-0.2 0.5-0.2 0.2-0.1 0.2-0.1 0.3-0.1 0.3 0 0.6-0.1 0.9-0.3 0.1-0.1 0.4-0.3 0.7-0.4 0.2 0 0.2-0.2 0.3-0.2 0.1-0.1 0.3-0.1 0.4-0.3l0.2-0.1c0.1-0.3 0.4-0.4 0.7-0.6 0-0.1 0.1-0.1 0.1-0.1 0.3-0.2 0.5-0.5 0.8-0.6l0.1-0.1 0.3-0.3c0.1-0.2 0.3-0.2 0.3-0.3 0-0.2 0.1-0.2 0.1-0.3l0.2-0.2c0.3-0.1 0.4-0.4 0.5-0.7 0.2-0.1 0.2-0.3 0.3-0.4l12.6-27.4c0-0.1 0.1-0.3 0.1-0.4 0-0.3 0.2-0.5 0.2-0.7v-0.2c0.1-0.1 0.1-0.4 0.1-0.6 0-0.1 0-0.3 0.3-0.4z"/>
	<path id="Layer" class="s3" d="m150.7 78.6c3.7 2.2 5.2 5.3 3.7 8.2l-12.5 27.6c-1.3 2.9-5.2 5.2-10.3 5.9l-47.4 7.4c-5.1 0.8-10.4 0-14.1-2.2l-34.8-20.1c-3.6-2.2-5.2-5.3-3.8-8.2l12.6-27.6c1.3-2.9 5.2-5.2 10.3-5.9l47.4-7.4c5.1-0.8 10.4 0 14 2.2z"/>
	<path id="Layer" class="s4" d="m154.5 87.7l-12.5 27.6c-1.3 2.9-5.2 5.3-10.3 6l-47.2 7.4c-5.1 0.8-10.4 0-14-2.2l-34.8-20.2c-1.8-1.2-3.1-2.5-3.7-3.9 0.7 0.9 1.7 1.7 2.9 2.5l34.7 20.2c3.6 2.2 9.1 2.9 14 2.2l47.3-7.5c5-0.7 8.9-3 10.2-5.9l12.5-27.7c0.6-1.4 0.6-2.9 0-4.2 1.5 1.6 1.8 3.6 0.9 5.7z"/>
	<path id="Layer" fill-rule="evenodd" class="s5" d="m105.9 91.3l-12 6.9 5.2 6-10.6 6.1-22.6-28.9 10.9-6.3 50.1 13-10.6 6.2zm-10.4-3l-14-4.2 7.3 8.1c0 0 6.7-3.9 6.7-3.9z"/>
	<path id="Layer" class="s6" d="m95.6 249.5c-1.2 2-4 2-5.2 0l-9.5-16.5c-1.2-2 0.3-4.5 2.6-4.5h19c2.3 0 3.8 2.5 2.6 4.5z"/>
	<path id="Layer" class="s7" d="m95.6 249.5c-1.2 2-4 2-5.2 0l-9.5-16.5c-1.2-2 0.3-4.5 2.6-4.5h19c2.3 0 3.8 2.5 2.6 4.5z"/>
	<path id="Layer" class="s6" d="m95.6 383.5c-1.2 2-4 2-5.2 0l-9.5-16.5c-1.2-2 0.3-4.5 2.6-4.5h19c2.3 0 3.8 2.5 2.6 4.5z"/>
	<path id="Layer" class="s8" d="m95.6 383.5c-1.2 2-4 2-5.2 0l-9.5-16.5c-1.2-2 0.3-4.5 2.6-4.5h19c2.3 0 3.8 2.5 2.6 4.5z"/>
	<rect id="Layer" class="s6" x="53" y="264" width="80" height="80" rx="18"></rect>
	<rect id="Layer" class="s9" x="53" y="264" width="80" height="80" rx="18"></rect>
	<rect id="Layer" class="s10" x="53" y="264" width="80" height="80" rx="18"></rect>
	<g id="Clip-Path" clip-path="url(#cp1)">
		<g id="Layer">
			<path id="Layer" fill-rule="evenodd" class="s11" d="m106.6 304c0 7.5-6.1 13.6-13.6 13.6-7.5 0-13.6-6.1-13.6-13.6 0-7.5 6.1-13.6 13.6-13.6 7.5 0 13.6 6.1 13.6 13.6zm-16.3-3.3q0-0.4 0.2-0.8 0.1-0.4 0.4-0.7 0.3-0.3 0.7-0.4 0.4-0.2 0.8-0.2h1.2q0.4 0 0.8 0.2 0.4 0.1 0.7 0.4 0.3 0.3 0.4 0.7 0.2 0.4 0.2 0.8h2.4q0-0.8-0.2-1.6-0.3-0.8-0.9-1.4-0.5-0.6-1.2-1-0.8-0.4-1.6-0.5v-2.5h-2.4v2.5q-0.8 0.1-1.6 0.5-0.7 0.4-1.2 1-0.6 0.6-0.9 1.4-0.2 0.8-0.2 1.6 0 0.9 0.3 1.7 0.4 0.9 1 1.5 0.6 0.6 1.5 1 0.8 0.3 1.7 0.3h1.2q0.4 0 0.8 0.2 0.4 0.1 0.7 0.4 0.3 0.3 0.4 0.7 0.2 0.4 0.2 0.8 0 0.4-0.2 0.8-0.1 0.4-0.4 0.7-0.3 0.3-0.7 0.4-0.4 0.2-0.8 0.2h-1.2q-0.4 0-0.8-0.2-0.4-0.1-0.7-0.4-0.3-0.3-0.4-0.7-0.2-0.4-0.2-0.8h-2.4q0 0.8 0.2 1.6 0.3 0.8 0.9 1.4 0.5 0.6 1.2 1 0.8 0.4 1.6 0.5v2.5h2.4v-2.5q0.8-0.1 1.6-0.5 0.7-0.4 1.2-1 0.6-0.6 0.9-1.4 0.2-0.8 0.2-1.6 0-0.9-0.3-1.7-0.4-0.9-1-1.5-0.6-0.6-1.5-1-0.8-0.3-1.7-0.3h-1.2c-1.2 0-2.1-1-2.1-2.1z"/>
			<path id="Layer" fill-rule="evenodd" class="s5" d="m110.5 292.3q1.1 1.7 1.9 3.7 0.8 1.9 1.2 3.9 0.4 2 0.4 4.1 0 2.1-0.4 4.1-0.4 2-1.2 3.9-0.8 2-1.9 3.7-1.2 1.7-2.7 3.1-1.4 1.5-3.1 2.7-1.7 1.1-3.7 1.9-1.9 0.8-3.9 1.2-2 0.4-4.1 0.4-2.1 0-4.1-0.4-2-0.4-3.9-1.2-2-0.8-3.7-1.9-1.7-1.2-3.1-2.7-1.5-1.4-2.7-3.1-1.1-1.7-1.9-3.7-0.8-1.9-1.2-3.9-0.4-2-0.4-4.1 0-2.1 0.4-4.1 0.4-2 1.2-3.9 0.8-2 1.9-3.7 1.2-1.7 2.7-3.1 1.4-1.5 3.1-2.7 1.7-1.1 3.7-1.9 1.9-0.8 3.9-1.2 2-0.4 4.1-0.4 2.1 0 4.1 0.4 2 0.4 3.9 1.2 2 0.8 3.7 1.9 1.7 1.2 3.1 2.7 1.5 1.4 2.7 3.1zm-1.4 11.7c0-8.9-7.2-16.1-16.1-16.1-8.9 0-16.1 7.2-16.1 16.1 0 8.9 7.2 16.1 16.1 16.1 8.9 0 16.1-7.2 16.1-16.1z"/>
		</g>
	</g>
	<rect id="Layer" class="s6" x="53" y="398" width="80" height="80" rx="18"></rect>
	<rect id="Layer" class="s9" x="53" y="398" width="80" height="80" rx="18"></rect>
	<rect id="Layer" class="s12" x="53" y="398" width="80" height="80" rx="18"></rect>
	<g id="Clip-Path" clip-path="url(#cp2)">
		<g id="Layer">
			<path id="Layer" class="s13" d="m79.8 444h2.5v2.4h-2.5z"/>
			<path id="Layer" fill-rule="evenodd" class="s14" d="m94.7 422.7q-0.5 0.3-1 0.7-0.4 0.4-0.7 1-0.2 0.5-0.3 1.1c0 0.4-0.4 3.6 0.6 7.5 0.6 2.8 1.8 5.2 3.3 7.3q0.6 0.8 1.3 1.6 0.7 0.7 1.4 1.4 0.8 0.6 1.6 1.2 0.8 0.6 1.7 1.1 0.2 0.1 0.4 0.2 0.2 0.1 0.5 0.1 0.2 0.1 0.5 0.1 0.2 0 0.5 0v1.4h-10.4c-0.7 0-1.2 0.6-1.2 1.3v10.3h-19.3c-0.6 0-1.2-0.6-1.2-1.2v-39.6q0-0.2 0.1-0.4 0.1-0.3 0.3-0.4 0.1-0.2 0.4-0.3 0.2-0.1 0.4-0.1h29.6q0.3 0 0.5 0.1 0.2 0.1 0.4 0.3 0.2 0.1 0.3 0.4 0.1 0.2 0.1 0.4v0.3q-0.4 0-0.8 0-0.4 0.1-0.8 0.3-0.4 0.1-0.7 0.4-0.3 0.2-0.6 0.5c0 0.1-1.1 1.2-2.4 1.9-1.1 0.4-2.7 0.7-3.3 0.8q-0.6 0-1.2 0.3zm-10 10.2c0-0.7-0.5-1.2-1.2-1.2h-4.9c-0.7 0-1.3 0.5-1.3 1.2v4.9q0 0.3 0.1 0.5 0.1 0.2 0.3 0.4 0.2 0.2 0.4 0.3 0.2 0.1 0.5 0.1h4.9q0.2 0 0.5-0.1 0.2-0.1 0.4-0.3 0.1-0.2 0.2-0.4 0.1-0.2 0.1-0.5zm0 9.9c0-0.7-0.5-1.3-1.2-1.3h-4.9c-0.7 0-1.3 0.6-1.3 1.3v4.9q0 0.2 0.1 0.5 0.1 0.2 0.3 0.4 0.2 0.1 0.4 0.2 0.2 0.1 0.5 0.1h4.9q0.2 0 0.5-0.1 0.2-0.1 0.4-0.2 0.1-0.2 0.2-0.4 0.1-0.3 0.1-0.5zm-2.4-8.6v2.4h-2.5v-2.4zm2.5-11.1c0-0.7-0.6-1.2-1.3-1.2h-4.9c-0.7 0-1.2 0.5-1.2 1.2v4.9c0 0.7 0.5 1.3 1.2 1.3h4.9c0.7 0 1.3-0.6 1.3-1.3zm-5 1.3h2.5v2.4h-2.5c0 0 0-2.4 0-2.4z"/>
			<path id="Layer" class="s15" d="m95.4 449.9h9.1q0 0.5-0.4 0.9l-7.9 7.8c-0.2 0.3-0.5 0.4-0.8 0.4z"/>
			<path id="Layer" fill-rule="evenodd" class="s5" d="m113 432.5c-1.2 4.8-4 8.6-8.1 10.9-0.3 0.2-0.8 0.2-1.1 0-4.1-2.3-6.9-6.1-8.1-10.9-0.9-3.6-0.6-6.6-0.6-6.7q0.1-0.2 0.2-0.3 0-0.2 0.2-0.4 0.1-0.1 0.3-0.2 0.2-0.1 0.4-0.1c0 0 2.4-0.2 4-1 1.9-0.9 3.3-2.5 3.3-2.5q0.1-0.2 0.4-0.3 0.2-0.1 0.4-0.1 0.3 0 0.5 0.1 0.2 0.1 0.4 0.3c0 0 1.4 1.6 3.3 2.5 1.6 0.8 4 1 4 1q0.2 0 0.4 0.1 0.2 0.1 0.3 0.2 0.2 0.2 0.2 0.4 0.1 0.1 0.1 0.3c0.1 0.1 0.4 3.1-0.5 6.7zm-3.5-3.9q-0.1-0.1-0.4-0.2-0.2-0.1-0.4-0.1-0.3 0.1-0.5 0.2-0.2 0.1-0.4 0.3l-3.7 4.3-2.1-2.1c-0.3-0.2-0.6-0.3-0.9-0.3-0.3 0-0.6 0.1-0.8 0.4-0.3 0.2-0.4 0.5-0.4 0.8 0 0.3 0.1 0.6 0.3 0.9l3.1 3q0.1 0.2 0.4 0.3 0.2 0.1 0.5 0.1 0.2-0.1 0.5-0.2 0.2-0.1 0.4-0.3l4.6-5.3c0.4-0.5 0.4-1.3-0.2-1.8z"/>
		</g>
	</g>
	<path id="Layer" class="s16" d="m377 270h-9.6c-24.3 0-44 19.7-44 44 0 24.3-19.7 44-44 44h-36.4"/>
	<path id="Layer" class="s17" d="m243 383h36.4c24.3 0 44 19.7 44 44 0 24.3 19.7 44 44 44h9.6"/>
	<path id="Layer" class="s18" d="m377 370h-134"/>
	<path id="Layer" class="s19" d="m454 471h6.6c24.3 0 44-19.7 44-44 0-24.3 19.7-44 44-44h31.9"/>
	<path id="Layer" class="s20" d="m580.5 358h-31.9c-24.3 0-44-19.7-44-44 0-24.3-19.7-44-44-44h-6.6"/>
	<path id="Layer" class="s21" d="m454 371h126.5"/>
	<circle id="Layer" class="s6" cx="248" cy="370" r="30"/>
	<circle id="Layer" class="s22" cx="248" cy="370" r="30"/>
	<path id="Layer" class="s23" d="m253 379l-8.5-8.1q-0.3-0.2-0.4-0.6-0.2-0.4-0.2-0.8 0-0.4 0.2-0.8 0.1-0.4 0.4-0.6l8.5-8.1"/>
	<rect id="Layer" class="s6" x="374" y="237" width="80" height="80" rx="18"></rect>
	<rect id="Layer" class="s9" x="374" y="237" width="80" height="80" rx="18"></rect>
	<rect id="Layer" class="s24" x="374" y="237" width="80" height="80" rx="18"></rect>
	<rect id="Layer" class="s6" x="374" y="329" width="80" height="80" rx="18"></rect>
	<rect id="Layer" class="s9" x="374" y="329" width="80" height="80" rx="18"></rect>
	<rect id="Layer" class="s25" x="374" y="329" width="80" height="80" rx="18"></rect>
	<rect id="Layer" class="s6" x="374" y="421" width="80" height="80" rx="18"></rect>
	<rect id="Layer" class="s9" x="374" y="421" width="80" height="80" rx="18"></rect>
	<rect id="Layer" class="s26" x="374" y="421" width="80" height="80" rx="18"></rect>
	<path id="Layer" class="s27" d="m413.1 280.2c-0.2-0.2-0.3-0.5-0.3-0.8 0-0.3 0.1-0.7 0.3-0.9 0.3-0.2 0.6-0.4 0.9-0.4 0.3 0 0.6 0.2 0.9 0.4 0.2 0.2 0.3 0.6 0.3 0.9 0 0.3-0.1 0.6-0.3 0.8-0.3 0.3-0.6 0.4-0.9 0.4-0.3 0-0.6-0.1-0.9-0.4z"/>
	<path id="Layer" fill-rule="evenodd" class="s28" d="m425.3 279.4l-2.4 3.7-0.9 4.3-4.3 0.8-3.7 2.5-3.7-2.5-4.3-0.8-0.9-4.3-2.4-3.7 2.4-3.7 0.9-4.3 4.3-0.9 3.7-2.4 3.7 2.4 4.3 0.9 0.9 4.3zm-10 3.4q0.7-0.3 1.2-0.8 0.6-0.5 0.8-1.2 0.3-0.7 0.3-1.4 0-0.7-0.3-1.4-0.2-0.7-0.8-1.2-0.5-0.5-1.2-0.8-0.6-0.3-1.4-0.3-0.7 0-1.4 0.3-0.7 0.3-1.2 0.8-0.5 0.5-0.8 1.2-0.3 0.7-0.3 1.4 0 0.7 0.3 1.4 0.3 0.7 0.8 1.2 0.5 0.5 1.2 0.8 0.7 0.3 1.4 0.3 0.8 0 1.4-0.3z"/>
	<path id="Layer" class="s29" d="m430 256h5v7.4h-22.2v-7.4h4.9v4.9h2.5v-4.9h2.4v4.9h2.5v-4.9h2.4v4.9h2.5z"/>
	<path id="Layer" fill-rule="evenodd" class="s5" d="m435 265.8v29.6h-12.4v-5.6l1.5-0.3 1.1-5.5 3.1-4.6-3.1-4.7-1.1-5.4-5.5-1.1-3.5-2.4zm-32.2 8.9l-3.1 4.7 3.1 4.6 1.1 5.5 1.5 0.3v5.6h-12.4v-39.4h17.3v9.8h2.6l-3.5 2.4-5.5 1.1zm2.6-11.4v-2.5h-7.4v2.5z"/>
	<path id="Layer" class="s30" d="m420.2 290.3v7.7l-6.2-2.5-6.2 2.5v-7.7l1.6 0.3 4.6 3.1 4.6-3.1z"/>
	<path id="Layer" class="s31" d="m413.1 372.2c-0.2-0.2-0.3-0.5-0.3-0.8 0-0.3 0.1-0.7 0.3-0.9 0.3-0.2 0.6-0.4 0.9-0.4 0.3 0 0.6 0.2 0.9 0.4 0.2 0.2 0.3 0.6 0.3 0.9 0 0.3-0.1 0.6-0.3 0.8-0.3 0.3-0.6 0.4-0.9 0.4-0.3 0-0.6-0.1-0.9-0.4z"/>
	<path id="Layer" fill-rule="evenodd" class="s32" d="m425.3 371.4l-2.4 3.7-0.9 4.3-4.3 0.8-3.7 2.5-3.7-2.5-4.3-0.8-0.9-4.3-2.4-3.7 2.4-3.7 0.9-4.3 4.3-0.9 3.7-2.4 3.7 2.4 4.3 0.9 0.9 4.3zm-10 3.4q0.7-0.3 1.2-0.8 0.6-0.5 0.8-1.2 0.3-0.7 0.3-1.4 0-0.7-0.3-1.4-0.2-0.7-0.8-1.2-0.5-0.5-1.2-0.8-0.6-0.3-1.4-0.3-0.7 0-1.4 0.3-0.7 0.3-1.2 0.8-0.5 0.5-0.8 1.2-0.3 0.7-0.3 1.4 0 0.7 0.3 1.4 0.3 0.7 0.8 1.2 0.5 0.5 1.2 0.8 0.7 0.3 1.4 0.3 0.8 0 1.4-0.3z"/>
	<path id="Layer" class="s33" d="m430 348h5v7.4h-22.2v-7.4h4.9v4.9h2.5v-4.9h2.4v4.9h2.5v-4.9h2.4v4.9h2.5z"/>
	<path id="Layer" fill-rule="evenodd" class="s5" d="m435 357.8v29.6h-12.4v-5.6l1.5-0.3 1.1-5.5 3.1-4.6-3.1-4.7-1.1-5.4-5.5-1.1-3.5-2.4zm-32.2 8.9l-3.1 4.7 3.1 4.6 1.1 5.5 1.5 0.3v5.6h-12.4v-39.4h17.3v9.8h2.6l-3.5 2.4-5.5 1.1zm2.6-11.4v-2.5h-7.4v2.5z"/>
	<path id="Layer" class="s34" d="m420.2 382.3v7.7l-6.2-2.5-6.2 2.5v-7.7l1.6 0.3 4.6 3.1 4.6-3.1z"/>
	<path id="Layer" class="s35" d="m413.1 464.2c-0.2-0.2-0.3-0.5-0.3-0.8 0-0.3 0.1-0.7 0.3-0.9 0.3-0.2 0.6-0.4 0.9-0.4 0.3 0 0.6 0.2 0.9 0.4 0.2 0.2 0.3 0.6 0.3 0.9 0 0.3-0.1 0.6-0.3 0.8-0.3 0.3-0.6 0.4-0.9 0.4-0.3 0-0.6-0.1-0.9-0.4z"/>
	<path id="Layer" fill-rule="evenodd" class="s36" d="m425.3 463.4l-2.4 3.7-0.9 4.3-4.3 0.8-3.7 2.5-3.7-2.5-4.3-0.8-0.9-4.3-2.4-3.7 2.4-3.7 0.9-4.3 4.3-0.9 3.7-2.4 3.7 2.4 4.3 0.9 0.9 4.3zm-10 3.4q0.7-0.3 1.2-0.8 0.6-0.5 0.8-1.2 0.3-0.7 0.3-1.4 0-0.7-0.3-1.4-0.2-0.7-0.8-1.2-0.5-0.5-1.2-0.8-0.6-0.3-1.4-0.3-0.7 0-1.4 0.3-0.7 0.3-1.2 0.8-0.5 0.5-0.8 1.2-0.3 0.7-0.3 1.4 0 0.7 0.3 1.4 0.3 0.7 0.8 1.2 0.5 0.5 1.2 0.8 0.7 0.3 1.4 0.3 0.8 0 1.4-0.3z"/>
	<path id="Layer" class="s37" d="m430 440h5v7.4h-22.2v-7.4h4.9v4.9h2.5v-4.9h2.4v4.9h2.5v-4.9h2.4v4.9h2.5z"/>
	<path id="Layer" fill-rule="evenodd" class="s5" d="m435 449.8v29.6h-12.4v-5.6l1.5-0.3 1.1-5.5 3.1-4.6-3.1-4.7-1.1-5.4-5.5-1.1-3.5-2.4zm-32.2 8.9l-3.1 4.7 3.1 4.6 1.1 5.5 1.5 0.3v5.6h-12.4v-39.4h17.3v9.8h2.6l-3.5 2.4-5.5 1.1zm2.6-11.4v-2.5h-7.4v2.5z"/>
	<path id="Layer" class="s38" d="m420.2 474.3v7.7l-6.2-2.5-6.2 2.5v-7.7l1.6 0.3 4.6 3.1 4.6-3.1z"/>
	<path id="Layer" class="s39" d="m682 323h-22c-12.1 0-22 9.9-22 22 0 12.1-9.8 22-22 22h-44"/>
	<path id="Layer" class="s40" d="m749 420h23.6c12.1 0 22-9.9 22-22 0-12.1 9.8-22 22-22h43.4"/>
	<path id="Layer" class="s41" d="m572 376h44c12.2 0 22 9.9 22 22 0 12.1 9.9 22 22 22h22"/>
	<path id="Layer" class="s42" d="m865 367h-48.4c-12.2 0-22-9.9-22-22 0-12.1-9.9-22-22-22h-23.6"/>
	<circle id="Layer" class="s6" cx="581" cy="370" r="30"/>
	<circle id="Layer" class="s43" cx="581" cy="370" r="30"/>
	<path id="Layer" class="s23" d="m576 360l8.5 8.1q0.3 0.2 0.4 0.6 0.2 0.4 0.2 0.8 0 0.4-0.2 0.8-0.1 0.4-0.4 0.6l-8.5 8.1"/>
	<circle id="Layer" class="s6" cx="856" cy="370" r="30"/>
	<circle id="Layer" class="s44" cx="856" cy="370" r="30"/>
	<path id="Layer" class="s23" d="m851 360l8.5 8.1q0.3 0.2 0.4 0.6 0.2 0.4 0.2 0.8 0 0.4-0.2 0.8-0.1 0.4-0.4 0.6l-8.5 8.1"/>
	<rect id="Layer" class="s6" x="671" y="380" width="80" height="80" rx="18"></rect>
	<rect id="Layer" class="s9" x="671" y="380" width="80" height="80" rx="18"></rect>
	<rect id="Layer" class="s45" x="671" y="380" width="80" height="80" rx="18"></rect>
	<rect id="Layer" class="s6" x="671" y="273" width="80" height="80" rx="18"></rect>
	<rect id="Layer" class="s9" x="671" y="273" width="80" height="80" rx="18"></rect>
	<rect id="Layer" class="s46" x="671" y="273" width="80" height="80" rx="18"></rect>
	<path id="Layer" class="s5" d="m692.3 331.2q-0.7-0.3-1.2-0.8-0.5-0.5-0.8-1.2-0.3-0.7-0.3-1.4 0-0.3 0.1-0.5 0.1-0.2 0.3-0.4 0.1-0.2 0.4-0.3 0.2-0.1 0.4-0.1h34.6q0.3 0 0.5 0.1 0.2 0.1 0.4 0.3 0.2 0.2 0.3 0.4 0.1 0.2 0.1 0.5 0 0.7-0.3 1.4-0.3 0.7-0.8 1.2-0.5 0.5-1.2 0.8-0.7 0.3-1.4 0.3h-29.7q-0.7 0-1.4-0.3z"/>
	<path id="Layer" class="s47" d="m721.8 305.3c-0.3-0.3-0.4-0.6-0.4-0.9 0-0.3 0.1-0.7 0.4-0.9 0.2-0.2 0.5-0.3 0.8-0.3 0.4 0 0.7 0.1 0.9 0.3 0.2 0.2 0.4 0.6 0.4 0.9 0 0.3-0.2 0.6-0.4 0.9-0.2 0.2-0.5 0.3-0.9 0.3-0.3 0-0.6-0.1-0.8-0.3z"/>
	<path id="Layer" class="s5" d="m717.7 312.9v0.1q0 0.7 0.3 1.4 0.3 0.7 0.8 1.2 0.5 0.5 1.2 0.8 0.7 0.3 1.4 0.3h2.5q0.1 0 0.2 0 0.1 0 0.2 0 0 0 0.1-0.1 0.1 0 0.2 0v7.5h-32.1v-13.6q0-0.7 0.2-1.4 0.3-0.7 0.8-1.2 0.6-0.5 1.2-0.8 0.7-0.3 1.5-0.3h14.8q-0.1 0.4-0.1 0.7 0 0.4 0 0.7 0.1 0.3 0.2 0.7 0.1 0.3 0.3 0.6l1.2 2.1c0.9 1.6 2.9 2.4 5.1 1.3z"/>
	<path id="Layer" fill-rule="evenodd" class="s48" d="m715.3 304.5q0-0.4 0-0.7-0.1-0.3-0.3-0.6-0.1-0.3-0.4-0.5-0.2-0.2-0.5-0.4c-0.6-0.3-0.9-1.2-0.6-1.8l1.2-2.1q0.2-0.2 0.4-0.4 0.2-0.1 0.4-0.2 0.2 0 0.5 0 0.2 0 0.4 0.2c1 0.5 1.8 0.5 2.6 0 0.7-0.4 1.2-1.2 1.2-2.1 0-0.6 0.5-1.4 1.2-1.4h2.5c0.7 0 1.2 0.6 1.2 1.3 0 1 0.5 1.8 1.2 2.2q0.3 0.2 0.6 0.2 0.3 0.1 0.6 0.1 0.4 0 0.7 0 0.3-0.1 0.6-0.3c0.6-0.3 1.5-0.2 1.8 0.4l1.2 2.1q0.2 0.2 0.2 0.5 0 0.2 0 0.5-0.1 0.2-0.3 0.4-0.1 0.2-0.3 0.3c-0.9 0.5-1.4 1.3-1.4 2.2 0 1.4 1.1 1.9 1.4 2.2q0.2 0.1 0.3 0.3 0.2 0.2 0.3 0.4 0 0.2 0 0.5 0 0.2-0.2 0.4l-1.2 2.2q-0.1 0.2-0.3 0.3-0.2 0.2-0.4 0.2-0.3 0.1-0.5 0.1-0.3-0.1-0.5-0.2c-0.9-0.5-1.8-0.5-2.6 0-0.7 0.4-1.2 1.2-1.2 2 0 0.7-0.5 1.4-1.2 1.4h-2.5c-0.7 0-1.2-0.5-1.2-1.2v-0.2q0-0.3-0.1-0.6-0.1-0.3-0.2-0.6-0.2-0.2-0.4-0.4-0.2-0.3-0.5-0.4c-0.8-0.5-1.7-0.5-2.4-0.1l-0.2 0.1q-0.2 0.1-0.4 0.2-0.3 0-0.5-0.1-0.3 0-0.4-0.2-0.2-0.1-0.4-0.3l-1.2-2.2q-0.1-0.2-0.1-0.4-0.1-0.3 0-0.5 0.1-0.2 0.2-0.4 0.1-0.2 0.4-0.3c0.2-0.3 1.3-0.6 1.3-2.1zm5.9-3.5q-0.6 0.3-1.2 0.8-0.5 0.5-0.8 1.2-0.2 0.7-0.2 1.4 0 0.7 0.2 1.4 0.3 0.7 0.8 1.2 0.6 0.5 1.2 0.8 0.7 0.3 1.4 0.3 0.8 0 1.5-0.3 0.6-0.3 1.2-0.8 0.5-0.5 0.8-1.2 0.2-0.7 0.2-1.4 0-0.7-0.2-1.4-0.3-0.7-0.8-1.2-0.6-0.5-1.2-0.8-0.7-0.3-1.5-0.3-0.7 0-1.4 0.3z"/>
	<path id="Layer" class="s5" d="m692.3 438.2q-0.7-0.3-1.2-0.8-0.5-0.5-0.8-1.2-0.3-0.7-0.3-1.4 0-0.3 0.1-0.5 0.1-0.2 0.3-0.4 0.1-0.2 0.4-0.3 0.2-0.1 0.4-0.1h34.6q0.3 0 0.5 0.1 0.2 0.1 0.4 0.3 0.2 0.2 0.3 0.4 0.1 0.2 0.1 0.5 0 0.7-0.3 1.4-0.3 0.7-0.8 1.2-0.5 0.5-1.2 0.8-0.7 0.3-1.4 0.3h-29.7q-0.7 0-1.4-0.3z"/>
	<text id="Aut贸nomo" style="transform: matrix(1,0,0,1,23,195)" >
		<tspan x="0" y="18.2" class="t49">A</tspan><tspan  y="18.2" class="t49">u</tspan><tspan  y="18.2" class="t49">t</tspan><tspan  y="18.2" class="t49">贸</tspan><tspan  y="18.2" class="t49">n</tspan><tspan  y="18.2" class="t49">o</tspan><tspan  y="18.2" class="t49">m</tspan><tspan  y="18.2" class="t49">o
</tspan>
	</text>
	<text id="Transparencia" style="transform: matrix(1,0,0,1,318,196)" >
		<tspan x="0" y="18.2" class="t49">T</tspan><tspan  y="18.2" class="t49">r</tspan><tspan  y="18.2" class="t49">a</tspan><tspan  y="18.2" class="t49">n</tspan><tspan  y="18.2" class="t49">s</tspan><tspan  y="18.2" class="t49">p</tspan><tspan  y="18.2" class="t49">a</tspan><tspan  y="18.2" class="t49">r</tspan><tspan  y="18.2" class="t49">e</tspan><tspan  y="18.2" class="t49">n</tspan><tspan  y="18.2" class="t49">c</tspan><tspan  y="18.2" class="t49">i</tspan><tspan  y="18.2" class="t49">a</tspan><tspan  y="18.2" class="t49">
</tspan>
	</text>
	<text id="Inmutables" style="transform: matrix(1,0,0,1,337,521)" >
		<tspan x="0" y="18.2" class="t49">I</tspan><tspan  y="18.2" class="t49">n</tspan><tspan  y="18.2" class="t49">m</tspan><tspan  y="18.2" class="t49">u</tspan><tspan  y="18.2" class="t49">t</tspan><tspan  y="18.2" class="t49">a</tspan><tspan  y="18.2" class="t49">b</tspan><tspan  y="18.2" class="t49">l</tspan><tspan  y="18.2" class="t49">e</tspan><tspan  y="18.2" class="t49">s
</tspan>
	</text>
	<text id="Precisi贸n" style="transform: matrix(1,0,0,1,654,521)" >
		<tspan x="0" y="18.2" class="t49">P</tspan><tspan  y="18.2" class="t49">r</tspan><tspan  y="18.2" class="t49">e</tspan><tspan  y="18.2" class="t49">c</tspan><tspan  y="18.2" class="t49">i</tspan><tspan  y="18.2" class="t49">s</tspan><tspan  y="18.2" class="t49">i</tspan><tspan  y="18.2" class="t49">贸</tspan><tspan  y="18.2" class="t49">n
</tspan>
	</text>
	<text id="Seguridad" style="transform: matrix(1,0,0,1,24,522)" >
		<tspan x="0" y="18.2" class="t49">S</tspan><tspan  y="18.2" class="t49">e</tspan><tspan  y="18.2" class="t49">g</tspan><tspan  y="18.2" class="t49">u</tspan><tspan  y="18.2" class="t49">r</tspan><tspan  y="18.2" class="t49">i</tspan><tspan  y="18.2" class="t49">d</tspan><tspan  y="18.2" class="t49">a</tspan><tspan  y="18.2" class="t49">d
</tspan>
	</text>
	<path id="Layer" class="s50" d="m721.8 412.3c-0.3-0.3-0.4-0.6-0.4-0.9 0-0.3 0.1-0.7 0.4-0.9 0.2-0.2 0.5-0.3 0.8-0.3 0.4 0 0.7 0.1 0.9 0.3 0.2 0.2 0.4 0.6 0.4 0.9 0 0.3-0.2 0.6-0.4 0.9-0.2 0.2-0.5 0.3-0.9 0.3-0.3 0-0.6-0.1-0.8-0.3z"/>
	<path id="Layer" class="s5" d="m717.7 419.9v0.1q0 0.7 0.3 1.4 0.3 0.7 0.8 1.2 0.5 0.5 1.2 0.8 0.7 0.3 1.4 0.3h2.5q0.1 0 0.2 0 0.1 0 0.2 0 0 0 0.1-0.1 0.1 0 0.2 0v7.5h-32.1v-13.6q0-0.7 0.2-1.4 0.3-0.7 0.8-1.2 0.6-0.5 1.2-0.8 0.7-0.3 1.5-0.3h14.8q-0.1 0.4-0.1 0.7 0 0.4 0 0.7 0.1 0.3 0.2 0.7 0.1 0.3 0.3 0.6l1.2 2.1c0.9 1.6 2.9 2.4 5.1 1.3z"/>
	<path id="Layer" fill-rule="evenodd" class="s51" d="m715.3 411.5q0-0.4 0-0.7-0.1-0.3-0.3-0.6-0.1-0.3-0.4-0.5-0.2-0.2-0.5-0.4c-0.6-0.3-0.9-1.2-0.6-1.8l1.2-2.1q0.2-0.2 0.4-0.4 0.2-0.1 0.4-0.2 0.2 0 0.5 0 0.2 0 0.4 0.2c1 0.5 1.8 0.5 2.6 0 0.7-0.4 1.2-1.2 1.2-2.1 0-0.6 0.5-1.4 1.2-1.4h2.5c0.7 0 1.2 0.6 1.2 1.3 0 1 0.5 1.8 1.2 2.2q0.3 0.2 0.6 0.2 0.3 0.1 0.6 0.1 0.4 0 0.7 0 0.3-0.1 0.6-0.3c0.6-0.3 1.5-0.2 1.8 0.4l1.2 2.1q0.2 0.2 0.2 0.5 0 0.2 0 0.5-0.1 0.2-0.3 0.4-0.1 0.2-0.3 0.3c-0.9 0.5-1.4 1.3-1.4 2.2 0 1.4 1.1 1.9 1.4 2.2q0.2 0.1 0.3 0.3 0.2 0.2 0.3 0.4 0 0.2 0 0.5 0 0.2-0.2 0.4l-1.2 2.2q-0.1 0.2-0.3 0.3-0.2 0.2-0.4 0.2-0.3 0.1-0.5 0.1-0.3-0.1-0.5-0.2c-0.9-0.5-1.8-0.5-2.6 0-0.7 0.4-1.2 1.2-1.2 2 0 0.7-0.5 1.4-1.2 1.4h-2.5c-0.7 0-1.2-0.5-1.2-1.2v-0.2q0-0.3-0.1-0.6-0.1-0.3-0.2-0.6-0.2-0.2-0.4-0.4-0.2-0.3-0.5-0.4c-0.8-0.5-1.7-0.5-2.4-0.1l-0.2 0.1q-0.2 0.1-0.4 0.2-0.3 0-0.5-0.1-0.3 0-0.4-0.2-0.2-0.1-0.4-0.3l-1.2-2.2q-0.1-0.2-0.1-0.4-0.1-0.3 0-0.5 0.1-0.2 0.2-0.4 0.1-0.2 0.4-0.3c0.2-0.3 1.3-0.6 1.3-2.1zm5.9-3.5q-0.6 0.3-1.2 0.8-0.5 0.5-0.8 1.2-0.2 0.7-0.2 1.4 0 0.7 0.2 1.4 0.3 0.7 0.8 1.2 0.6 0.5 1.2 0.8 0.7 0.3 1.4 0.3 0.8 0 1.5-0.3 0.6-0.3 1.2-0.8 0.5-0.5 0.8-1.2 0.2-0.7 0.2-1.4 0-0.7-0.2-1.4-0.3-0.7-0.8-1.2-0.6-0.5-1.2-0.8-0.7-0.3-1.5-0.3-0.7 0-1.4 0.3z"/>
	<rect id="Layer" class="s52" x="915" y="109" width="185" height="462" rx="24"></rect>
	<path id="Layer" class="s53" d="m1070 85l-0.1 36.9v0.3c-0.2 0.1-0.2 0.4-0.2 0.6v0.1c0 0.3 0 0.4-0.1 0.7 0 0.2-0.2 0.3-0.2 0.5l-12.5 27.4c-0.2 0.1-0.2 0.2-0.3 0.4-0.1 0.3-0.4 0.4-0.6 0.7v0.1c-0.1 0-0.1 0.2-0.1 0.2 0 0.1 0 0.1-0.2 0.3-0.1 0.1-0.1 0.1-0.3 0.3-0.1 0.1-0.1 0.1-0.2 0.3l-0.2 0.1h-0.1c-0.2 0.1-0.5 0.4-0.8 0.6 0 0.1-0.1 0.1-0.1 0.1-0.1 0.3-0.4 0.5-0.7 0.6l-0.2 0.1h-0.1c-0.2 0.2-0.3 0.2-0.4 0.3-0.2 0-0.2 0.2-0.3 0.2-0.2 0.1-0.5 0.3-0.8 0.4-0.1 0.2-0.4 0.2-0.7 0.3-0.1 0.1-0.1 0.1-0.3 0.1-0.1 0-0.4 0.2-0.5 0.2h-0.3c-0.3 0.1-0.7 0.1-1 0.3h-0.2c-0.4 0.1-0.8 0.1-1.3 0.3h-0.1c-0.3 0.1-0.5 0.1-0.6 0.1l-47.3 7.4c-0.4 0-0.9 0.1-1.3 0.1h-4.5c-0.5 0-1-0.1-1.4-0.1h-0.1c-0.2-0.2-0.3-0.2-0.5-0.2-0.1 0-0.4-0.1-0.7-0.1 0-0.2-0.1-0.2-0.3-0.2-0.3 0-0.4-0.1-0.7-0.1-0.3 0-0.4-0.2-0.6-0.2-0.1 0-0.3-0.1-0.4-0.1-0.5 0-0.7-0.2-1-0.3-0.2 0-0.3-0.1-0.5-0.1-0.1 0-0.3-0.2-0.4-0.2-0.1 0-0.3-0.1-0.4-0.1-0.5-0.3-0.9-0.5-1.3-0.7l-34.8-20.1c-2.9-1.6-4.3-3.7-4.3-5.9l0.1-36.9v0.9c0 0.3 0 0.5 0.2 0.8 0.3 0.6 0.4 1 0.9 1.6 0.7 1 1.7 1.9 3.1 2.8l34.8 20c0.4 0.3 0.8 0.6 1.3 0.7 0.1 0 0.3 0.2 0.4 0.2 0.3 0.1 0.6 0.1 0.9 0.2 0.4 0.2 0.7 0.2 1 0.3 0.3 0.2 0.6 0.2 0.8 0.3 0.3 0 0.5 0.2 0.8 0.2 0.4 0.1 0.7 0.3 1.1 0.3 0.2 0.1 0.3 0.1 0.5 0.1 0.4 0 1 0.1 1.5 0.1h4.2c0.5 0 1 0 1.6-0.1l47.3-7.4c0.3 0 0.4-0.1 0.7-0.1 0.4-0.1 0.9-0.1 1.3-0.3h0.2c0.2-0.1 0.7-0.1 1-0.3 0.1-0.1 0.1-0.1 0.3-0.1 0.1 0 0.4-0.2 0.5-0.2 0.2-0.1 0.2-0.1 0.3-0.1 0.3 0 0.6-0.1 0.9-0.3 0.1-0.1 0.4-0.3 0.7-0.4 0.1 0 0.1-0.2 0.3-0.2 0.1-0.1 0.3-0.1 0.4-0.3l0.2-0.1c0.1-0.3 0.4-0.4 0.7-0.6 0-0.1 0.1-0.1 0.1-0.1 0.3-0.2 0.5-0.5 0.8-0.6l0.1-0.1c0.1-0.2 0.1-0.2 0.3-0.3 0.1-0.2 0.3-0.2 0.3-0.3 0-0.2 0.1-0.2 0.1-0.3l0.2-0.2c0.3-0.1 0.4-0.4 0.5-0.7 0.2-0.1 0.2-0.3 0.3-0.4l12.6-27.4c0-0.1 0.1-0.3 0.1-0.4 0-0.3 0.2-0.5 0.2-0.7v-0.2c0.1-0.1 0.1-0.4 0.1-0.6 0-0.1 0-0.3 0.3-0.4z"/>
	<path id="Layer" class="s54" d="m1065.7 80.6c3.8 2.2 5.2 5.3 3.8 8.2l-12.6 27.6c-1.3 2.9-5.2 5.2-10.3 5.9l-47.4 7.4c-5.1 0.8-10.4 0-14.1-2.2l-34.8-20.1c-3.6-2.2-5.2-5.3-3.8-8.2l12.6-27.6c1.3-2.9 5.2-5.2 10.3-5.9l47.4-7.4c5.1-0.8 10.4 0 14 2.2z"/>
	<path id="Layer" class="s55" d="m1068.5 88.7l-12.5 27.6c-1.3 2.9-5.2 5.3-10.3 6l-47.2 7.4c-5.1 0.8-10.4 0-14-2.2l-34.8-20.2c-1.8-1.2-3.1-2.5-3.7-3.9 0.7 0.9 1.7 1.7 2.9 2.5l34.7 20.2c3.6 2.2 9.1 2.9 14 2.2l47.3-7.5c5-0.7 8.9-3 10.2-5.9l12.6-27.7c0.5-1.4 0.5-2.9 0-4.2 1.4 1.6 1.7 3.6 0.8 5.7z"/>
	<path id="Layer" fill-rule="evenodd" class="s5" d="m1027.8 97.4l-17.4 10.1-36.4-21 16.4-9.5q5.6-3.2 11.9-3.5 6.3-0.3 10.2 1.9 1.5 0.9 2.4 1.9 0.8 1.1 1 2 0.1 0.8 0 1.6-0.1 0.7-0.3 1.1l-0.3 0.4q0.4 0 1-0.2 0.7-0.1 2.5-0.4 1.8-0.2 3.6-0.2 1.7 0 3.9 0.5 2.3 0.5 4.1 1.5 4.3 2.5 3.7 6.5-0.5 4-6.3 7.3zm-15.3-0.1l6.8-3.9q1.7-1 1.7-2.2 0.1-1.3-1.5-2.1-1.5-1-3.7-0.9-2.1 0-3.8 1l-6.8 3.9zm-15.3-15.1l-5.4 3.1 6.2 3.6 5.4-3.2q1.6-0.9 1.6-1.9 0.1-1-1.3-1.8-1.4-0.8-3.2-0.8-0.4 0-0.8 0.1-0.5 0.1-0.9 0.2-0.4 0.1-0.8 0.3-0.4 0.1-0.8 0.4z"/>
	<path id="Layer" class="s6" d="m1012.6 257.5c-1.2 2-4 2-5.2 0l-9.5-16.5c-1.2-2 0.3-4.5 2.6-4.5h19c2.3 0 3.8 2.5 2.6 4.5z"/>
	<path id="Layer" class="s56" d="m1012.6 257.5c-1.2 2-4 2-5.2 0l-9.5-16.5c-1.2-2 0.3-4.5 2.6-4.5h19c2.3 0 3.8 2.5 2.6 4.5z"/>
	<path id="Layer" class="s6" d="m1012.6 391.5c-1.2 2-4 2-5.2 0l-9.5-16.5c-1.2-2 0.3-4.5 2.6-4.5h19c2.3 0 3.8 2.5 2.6 4.5z"/>
	<path id="Layer" class="s57" d="m1012.6 391.5c-1.2 2-4 2-5.2 0l-9.5-16.5c-1.2-2 0.3-4.5 2.6-4.5h19c2.3 0 3.8 2.5 2.6 4.5z"/>
	<rect id="Layer" class="s6" x="970" y="272" width="80" height="80" rx="18"></rect>
	<rect id="Layer" class="s9" x="970" y="272" width="80" height="80" rx="18"></rect>
	<rect id="Layer" class="s58" x="970" y="272" width="80" height="80" rx="18"></rect>
	<g id="Clip-Path" clip-path="url(#cp3)">
		<g id="Layer">
			<path id="Layer" fill-rule="evenodd" class="s59" d="m1023.6 312c0 7.5-6.1 13.6-13.6 13.6-7.5 0-13.6-6.1-13.6-13.6 0-7.5 6.1-13.6 13.6-13.6 7.5 0 13.6 6.1 13.6 13.6zm-16.3-3.3c0-1.1 0.9-2.1 2.1-2.1h1.2c1.2 0 2.1 1 2.1 2.1h2.4q0-0.8-0.2-1.6-0.3-0.8-0.9-1.4-0.5-0.6-1.2-1-0.8-0.4-1.6-0.5v-2.5h-2.4v2.5c-2.2 0.3-3.9 2.2-3.9 4.5 0 2.5 2 4.5 4.5 4.5h1.2c1.2 0 2.1 1 2.1 2.1 0 1.1-0.9 2.1-2.1 2.1h-1.2c-1.2 0-2.1-1-2.1-2.1h-2.4q0 0.8 0.2 1.6 0.3 0.8 0.9 1.4 0.5 0.6 1.2 1 0.8 0.4 1.6 0.5v2.5h2.4v-2.5c2.2-0.3 3.9-2.2 3.9-4.5 0-2.5-2-4.5-4.5-4.5h-1.2c-1.2 0-2.1-1-2.1-2.1z"/>
			<path id="Layer" fill-rule="evenodd" class="s5" d="m1031 312c0 5.6-2.2 10.9-6.2 14.8-3.9 4-9.2 6.2-14.8 6.2q-2.1 0-4.1-0.4-2-0.4-3.9-1.2-2-0.8-3.7-1.9-1.7-1.2-3.1-2.7-1.5-1.4-2.7-3.1-1.1-1.7-1.9-3.7-0.8-1.9-1.2-3.9-0.4-2-0.4-4.1 0-2.1 0.4-4.1 0.4-2 1.2-3.9 0.8-2 1.9-3.7 1.2-1.7 2.7-3.1 1.4-1.5 3.1-2.7 1.7-1.1 3.7-1.9 1.9-0.8 3.9-1.2 2-0.4 4.1-0.4 2.1 0 4.1 0.4 2 0.4 3.9 1.2 2 0.8 3.7 1.9 1.7 1.2 3.1 2.7c4 3.9 6.2 9.2 6.2 14.8zm-4.9 0c0-8.9-7.2-16.1-16.1-16.1-8.9 0-16.1 7.2-16.1 16.1 0 8.9 7.2 16.1 16.1 16.1 8.9 0 16.1-7.2 16.1-16.1z"/>
		</g>
	</g>
	<rect id="Layer" class="s6" x="970" y="407" width="80" height="80" rx="18"></rect>
	<rect id="Layer" class="s9" x="970" y="407" width="80" height="80" rx="18"></rect>
	<rect id="Layer" class="s60" x="970" y="407" width="80" height="80" rx="18"></rect>
	<g id="Clip-Path" clip-path="url(#cp4)">
		<g id="Layer">
			<path id="Layer" class="s5" d="m1007.8 457.4q-1.1-0.4-1.9-1.2-0.8-0.9-1.3-1.9-0.4-1.1-0.4-2.2c0-1.6 0.6-3 1.7-4.1 1.1-1.1 2.6-1.7 4.1-1.7 1.5 0 3 0.6 4.1 1.7 1.1 1.1 1.7 2.5 1.7 4.1q0 1.1-0.4 2.2-0.5 1-1.3 1.9-0.8 0.8-1.9 1.2-1 0.5-2.2 0.5-1.2 0-2.2-0.5z"/>
			<path id="Layer" fill-rule="evenodd" class="s61" d="m1010 444.8c-1.2 0-2.5-0.2-3.6-0.7-1.1-0.5-2.2-1.2-3.1-2-0.8-0.9-1.5-1.9-2-3.1-0.5-1.1-0.7-2.3-0.7-3.6 0-1.2 0.2-2.4 0.7-3.6 0.5-1.1 1.2-2.2 2-3 0.9-0.9 2-1.6 3.1-2.1 1.1-0.5 2.4-0.7 3.6-0.7 5.2 0 9.4 4.2 9.4 9.4 0 5.2-4.2 9.4-9.4 9.4zm1.6-5.7q0.4-0.2 0.7-0.5 0.3-0.3 0.4-0.7 0.2-0.4 0.2-0.9c0-2-1.8-2.2-2.8-2.3-1.3-0.2-1.6-0.3-1.6-0.9 0-0.6 0.9-0.9 1.5-0.9q0.2 0 0.4 0 0.2 0 0.5 0.1 0.2 0.1 0.3 0.2 0.2 0.1 0.3 0.3c0.2 0.4 0.7 0.5 1 0.3 0.4-0.2 0.5-0.7 0.3-1-0.5-0.7-1.2-1.2-2.1-1.3v-0.4q0-0.3-0.2-0.5-0.2-0.2-0.5-0.3-0.3 0.1-0.5 0.3-0.2 0.2-0.2 0.5v0.4q-0.5 0.1-0.8 0.2-0.4 0.2-0.7 0.5-0.3 0.4-0.5 0.8-0.2 0.4-0.2 0.8c0 2 1.8 2.2 2.8 2.3 1.3 0.2 1.5 0.3 1.5 0.9 0 0.8-0.9 0.9-1.4 0.9q-0.9 0.1-1.7-0.3-0.2-0.2-0.5-0.2-0.3 0-0.5 0.2-0.2 0.2-0.2 0.5 0 0.3 0.2 0.5 0.2 0.2 0.5 0.3 0.2 0.2 0.4 0.3 0.3 0.1 0.5 0.1 0.3 0.1 0.6 0.1v0.4q0 0.3 0.2 0.5 0.2 0.2 0.5 0.2 0.3 0 0.5-0.2 0.2-0.2 0.2-0.5v-0.5q0.5 0 0.9-0.2z"/>
			<path id="Layer" class="s5" d="m990.4 454.4q-0.6-0.7-1-1.6-0.4-1-0.4-1.9 0-1 0.4-1.9 0.4-1 1-1.7l3-3.1q0.4-0.4 1-0.6 0.5-0.2 1.1-0.2 0.6 0 1.1 0.2 0.5 0.2 0.9 0.6 0.4 0.5 0.6 1 0.2 0.5 0.2 1.1-0.1 0.5-0.3 1.1-0.2 0.5-0.6 0.9l-2.2 2.2q0 0.1-0.1 0.2 0 0 0 0.1 0 0.1 0 0.2 0.1 0.1 0.1 0.1l3.7 3.6c6.2 6.1 16.1 6.1 22.3 0l3.6-3.6c0.2-0.1 0.2-0.4 0-0.6l-2.2-2.2q-0.4-0.4-0.6-0.9-0.2-0.6-0.2-1.1 0-0.6 0.1-1.1 0.2-0.5 0.6-1c0.5-0.5 1.3-0.8 2.1-0.8q0.2 0 0.5 0 0.3 0.1 0.6 0.2 0.2 0.1 0.5 0.3 0.2 0.1 0.4 0.3l3 3.1q0.7 0.7 1 1.6 0.4 1 0.4 1.9 0 1-0.4 1.9-0.3 1-1 1.7l-6.9 6.5c-0.7 0.6-1.1 1.5-1.1 2.5v3.9c0 0.4-0.3 0.7-0.7 0.7h-21.8c-0.4 0-0.7-0.3-0.7-0.7v-3.9q0-0.4-0.1-0.7 0-0.4-0.2-0.7-0.1-0.3-0.3-0.6-0.2-0.3-0.5-0.5z"/>
			<path id="Layer" class="s62" d="m1025.2 436.1h-2.2c-0.4 0-0.7-0.3-0.7-0.7q0-0.1 0.1-0.3 0-0.1 0.1-0.2 0.1-0.1 0.3-0.2 0.1 0 0.2 0h2.2q0.2 0 0.3 0 0.1 0.1 0.2 0.2 0.1 0.1 0.2 0.2 0 0.2 0 0.3c0 0.4-0.3 0.7-0.7 0.7z"/>
			<path id="Layer" class="s5" d="m1021.5 439.1q0-0.1 0.1-0.2 0-0.1 0-0.2 0.1-0.1 0.1-0.2 0.1-0.1 0.2-0.1 0.1-0.1 0.2-0.1 0.1 0 0.2 0 0.1 0 0.2 0 0.1 0 0.1 0.1l1.5 0.7q0.1 0.1 0.2 0.2 0.1 0 0.1 0.2 0.1 0.1 0.1 0.2 0 0.1 0 0.2-0.1 0.1-0.1 0.2-0.1 0.1-0.2 0.2-0.1 0.1-0.2 0.1-0.1 0.1-0.2 0.1c-0.3 0-0.2 0-1.8-0.8-0.3-0.1-0.4-0.4-0.5-0.6zm0.4-6.7q-0.2-0.2-0.3-0.4 0-0.3 0.1-0.5 0.1-0.2 0.3-0.4l1.4-0.7q0.3-0.1 0.6 0 0.2 0.1 0.4 0.4 0.1 0.2 0 0.5-0.1 0.3-0.3 0.4c-1.6 0.8-1.6 0.8-1.8 0.8q-0.2 0-0.4-0.1zm-27.8 2.7q0.1-0.1 0.2-0.2 0.1-0.1 0.2-0.2 0.1 0 0.3 0h2.2q0.3 0 0.5 0.2 0.2 0.2 0.2 0.5 0 0.3-0.2 0.5-0.2 0.2-0.5 0.2h-2.2c-0.4 0-0.7-0.3-0.7-0.7q0-0.1 0-0.3z"/>
			<path id="Layer" class="s63" d="m995.8 440.3q-0.2-0.1-0.3-0.4 0-0.2 0.1-0.4 0.1-0.3 0.3-0.4l1.5-0.7q0.2-0.2 0.5-0.1 0.3 0.1 0.5 0.4 0.1 0.3 0 0.6-0.1 0.3-0.4 0.4c-1.6 0.8-1.5 0.8-1.8 0.8q-0.2 0-0.4-0.2z"/>
			<path id="Layer" class="s64" d="m995.9 431.7q-0.2-0.1-0.3-0.4-0.1-0.3 0.1-0.5 0.1-0.3 0.3-0.4 0.3-0.1 0.6 0l1.4 0.7q0.2 0.2 0.3 0.4 0.1 0.2 0.1 0.5-0.1 0.2-0.3 0.4-0.2 0.1-0.4 0.1c-0.2 0-0.2 0-1.8-0.8z"/>
		</g>
	</g>
	<text id="Ahorro" style="transform: matrix(1,0,0,1,965,521)" >
		<tspan x="0" y="18.2" class="t49">A</tspan><tspan  y="18.2" class="t49">h</tspan><tspan  y="18.2" class="t49">o</tspan><tspan  y="18.2" class="t49">r</tspan><tspan  y="18.2" class="t49">r</tspan><tspan  y="18.2" class="t49">o
</tspan>
	</text>
	<text id="Confianza" style="transform: matrix(1,0,0,1,938,195)" >
		<tspan x="0" y="18.2" class="t49">C</tspan><tspan  y="18.2" class="t49">o</tspan><tspan  y="18.2" class="t49">n</tspan><tspan  y="18.2" class="t49">f</tspan><tspan  y="18.2" class="t49">i</tspan><tspan  y="18.2" class="t49">a</tspan><tspan  y="18.2" class="t49">n</tspan><tspan  y="18.2" class="t49">z</tspan><tspan  y="18.2" class="t49">a
</tspan>
	</text>
	<text id="Interconectividad" style="transform: matrix(1,0,0,1,594,195)" >
		<tspan x="0" y="18.2" class="t49">I</tspan><tspan  y="18.2" class="t49">n</tspan><tspan  y="18.2" class="t49">t</tspan><tspan  y="18.2" class="t49">e</tspan><tspan  y="18.2" class="t49">r</tspan><tspan  y="18.2" class="t49">c</tspan><tspan  y="18.2" class="t49">o</tspan><tspan  y="18.2" class="t49">n</tspan><tspan  y="18.2" class="t49">e</tspan><tspan  y="18.2" class="t49">c</tspan><tspan  y="18.2" class="t49">t</tspan><tspan  y="18.2" class="t49">i</tspan><tspan  y="18.2" class="t49">v</tspan><tspan  y="18.2" class="t49">i</tspan><tspan  y="18.2" class="t49">d</tspan><tspan  y="18.2" class="t49">a</tspan><tspan  y="18.2" class="t49">d
</tspan>
	</text>
</svg>